<svg width="20" height="20" viewBox="0 0 20 20" fill="none" xmlns="http://www.w3.org/2000/svg">
<mask id="mask0_66_71" style="mask-type:luminance" maskUnits="userSpaceOnUse" x="1" y="0" width="18" height="20">
<path d="M1.50891 0.512695H18.4889V19.4827H1.50891V0.512695Z" fill="white"/>
</mask>
<g mask="url(#mask0_66_71)">
<path d="M18.4864 0.512695H1.51147L3.00923 17.4859L9.99892 19.4827L16.9886 17.4859L18.4864 0.512695Z" fill="#0277BD"/>
</g>
<path d="M9.99915 2.01074V17.9355L15.5909 16.338L16.839 2.01074H9.99915Z" fill="#039BE5"/>
<path d="M14.5424 4.50659H9.99915V6.50341H12.4456L12.2958 8.50024H9.99915V10.4971H12.1959L12.0461 12.7436L9.99915 13.4424V15.5391L13.9433 14.2412L14.2928 8.50024L14.5424 4.50659Z" fill="white"/>
<path d="M9.99911 4.50659V6.50341H5.55568L5.40588 4.50659H9.99911ZM7.7025 8.50024L7.80234 10.4971H9.99911V8.50024H7.7025ZM7.90219 11.4955H5.90515L6.05495 14.2412L9.99911 15.5391V13.4424L7.95213 12.7436L7.90219 11.4955Z" fill="#EEEEEE"/>
</svg>
