<svg width="20" height="20" viewBox="0 0 20 20" fill="none" xmlns="http://www.w3.org/2000/svg">
<mask id="mask0_66_81" style="mask-type:luminance" maskUnits="userSpaceOnUse" x="1" y="0" width="18" height="20">
<path d="M1.58234 0.439697H18.4223V19.5597H1.58234V0.439697Z" fill="white"/>
</mask>
<g mask="url(#mask0_66_81)">
<path d="M3.111 17.6422L1.57751 0.448486H18.427L16.8924 17.6398L9.99153 19.5513L3.111 17.6422Z" fill="#E44D26"/>
</g>
<path d="M15.5781 16.5453L16.89 1.85474H10.0024V18.0908L15.5781 16.5453Z" fill="#F16529"/>
<path d="M9.99515 3.96313H4.71265L5.28176 10.3401H10.0023V8.23152H7.21119L7.01827 6.07225H10.0023V3.96313H9.99515ZM10.0023 13.7011L9.99338 13.7034L7.6441 13.0695L7.49483 11.3878H5.37608L5.67171 14.6987L9.99275 15.8926L10.0023 15.8896V13.7011Z" fill="#EBEBEB"/>
<path d="M9.99516 10.3401H12.5928L12.354 13.0742L10.0011 13.7088V15.9027L14.3258 14.7046L14.9051 8.23032H10.0023L9.99516 10.3401ZM15.2287 4.52907L15.2789 3.96313H9.99396V6.07162H15.089L15.1308 5.59767L15.2287 4.52907Z" fill="white"/>
</svg>
