<svg width="61" height="61" viewBox="0 0 61 61" fill="none" xmlns="http://www.w3.org/2000/svg">
<g clip-path="url(#clip0_66_5199)">
<path d="M30.4669 60.8379C47.2457 60.8379 60.8477 47.2359 60.8477 30.457C60.8477 13.6781 47.2457 0.0761719 30.4669 0.0761719C13.688 0.0761719 0.0859985 13.6781 0.0859985 30.457C0.0859985 47.2359 13.688 60.8379 30.4669 60.8379Z" fill="black"/>
<path d="M50.5547 53.2495L23.4261 18.3047H18.3145V42.5995H22.4038V23.4975L47.3449 55.7218C48.4685 54.9698 49.5408 54.1439 50.5547 53.2495Z" fill="url(#paint0_linear_66_5199)"/>
<path fill-rule="evenodd" clip-rule="evenodd" d="M38.9059 18.3047H42.9564V42.6094H38.9059V18.3047Z" fill="url(#paint1_linear_66_5199)"/>
</g>
<defs>
<linearGradient id="paint0_linear_66_5199" x1="36.8807" y1="39.4028" x2="48.8643" y2="54.2558" gradientUnits="userSpaceOnUse">
<stop stop-color="white"/>
<stop offset="1" stop-color="white" stop-opacity="0"/>
</linearGradient>
<linearGradient id="paint1_linear_66_5199" x1="40.9312" y1="18.3052" x2="40.8633" y2="36.154" gradientUnits="userSpaceOnUse">
<stop stop-color="white"/>
<stop offset="1" stop-color="white" stop-opacity="0"/>
</linearGradient>
<clipPath id="clip0_66_5199">
<rect width="61" height="61" fill="white"/>
</clipPath>
</defs>
</svg>
