<svg width="32" height="34" viewBox="0 0 32 34" fill="none" xmlns="http://www.w3.org/2000/svg">
<path d="M15.7177 19.6644C17.2325 19.6644 18.4605 18.4364 18.4605 16.9215C18.4605 15.4067 17.2325 14.1787 15.7177 14.1787C14.2029 14.1787 12.9749 15.4067 12.9749 16.9215C12.9749 18.4364 14.2029 19.6644 15.7177 19.6644Z" fill="#61DAFB"/>
<path fill-rule="evenodd" clip-rule="evenodd" d="M2.82666 15.4766C2.20554 16.0373 2 16.5274 2 16.9217C2 17.316 2.20554 17.8061 2.82666 18.3668C3.44768 18.9274 4.40246 19.4781 5.66739 19.961C8.19037 20.9244 11.7434 21.5412 15.7176 21.5412C19.6918 21.5412 23.2449 20.9244 25.7678 19.961C27.0328 19.4781 27.9875 18.9274 28.6086 18.3668C29.2297 17.8061 29.4352 17.316 29.4352 16.9217C29.4352 16.5274 29.2297 16.0373 28.6086 15.4766C27.9875 14.916 27.0328 14.3653 25.7678 13.8824C23.2449 12.919 19.6918 12.3022 15.7176 12.3022C11.7434 12.3022 8.19037 12.919 5.66739 13.8824C4.40246 14.3653 3.44768 14.916 2.82666 15.4766ZM4.95399 12.0139C7.75773 10.9434 11.5635 10.3022 15.7176 10.3022C19.8717 10.3022 23.6775 10.9434 26.4812 12.0139C27.8797 12.5479 29.0802 13.2081 29.9487 13.9921C30.8171 14.776 31.4352 15.7643 31.4352 16.9217C31.4352 18.0791 30.8171 19.0674 29.9487 19.8513C29.0802 20.6353 27.8797 21.2955 26.4812 21.8295C23.6775 22.9 19.8717 23.5412 15.7176 23.5412C11.5635 23.5412 7.75773 22.9 4.95399 21.8295C3.55555 21.2955 2.35499 20.6353 1.4865 19.8513C0.618127 19.0674 0 18.0791 0 16.9217C0 15.7643 0.618127 14.776 1.4865 13.9921C2.35499 13.2081 3.55555 12.5479 4.95399 12.0139Z" fill="#61DAFB"/>
<path fill-rule="evenodd" clip-rule="evenodd" d="M10.5236 5.03516C9.72746 4.7776 9.20033 4.8446 8.85882 5.04178C8.5173 5.23895 8.19571 5.66195 8.02069 6.48022C7.8457 7.29834 7.84617 8.40055 8.06037 9.7375C8.4876 12.4041 9.72994 15.7895 11.7171 19.2313C13.7042 22.6731 16.0148 25.4417 18.1106 27.145C19.1613 27.999 20.1156 28.5505 20.9116 28.808C21.7078 29.0656 22.2349 28.9986 22.5764 28.8014C22.9179 28.6042 23.2395 28.1812 23.4146 27.3629C23.5895 26.5448 23.5891 25.4426 23.3749 24.1057C22.9476 21.439 21.7053 18.0536 19.7182 14.6119C17.7311 11.1701 15.4204 8.40147 13.3247 6.69816C12.2739 5.84419 11.3196 5.29268 10.5236 5.03516ZM14.5861 5.14612C16.915 7.03897 19.3732 10.0143 21.4502 13.6119C23.5273 17.2094 24.8749 20.8259 25.3497 23.7893C25.5865 25.2673 25.615 26.6371 25.3703 27.7813C25.1256 28.9253 24.5788 29.9547 23.5764 30.5334C22.5741 31.1121 21.4091 31.071 20.296 30.7109C19.1828 30.3508 18.0108 29.6411 16.8492 28.697C14.5202 26.8042 12.0621 23.8288 9.98501 20.2313C7.90797 16.6338 6.56033 13.0173 6.08556 10.0539C5.84875 8.57584 5.82021 7.20602 6.06493 6.06189C6.30962 4.91791 6.85646 3.88844 7.85882 3.30973C8.86117 2.73101 10.0261 2.77217 11.1392 3.13226C12.2524 3.49239 13.4244 4.20201 14.5861 5.14612Z" fill="#61DAFB"/>
<path fill-rule="evenodd" clip-rule="evenodd" d="M23.4146 6.48015C23.2396 5.66188 22.918 5.23888 22.5765 5.04171C22.235 4.84454 21.7078 4.77753 20.9117 5.03509C20.1157 5.29261 19.1614 5.84412 18.1106 6.6981C16.0149 8.4014 13.7042 11.17 11.7171 14.6118C9.72998 18.0536 8.48764 21.439 8.06041 24.1056C7.84621 25.4425 7.84574 26.5448 8.02073 27.3629C8.19575 28.1811 8.51734 28.6041 8.85885 28.8013C9.20037 28.9985 9.72749 29.0655 10.5236 28.8079C11.3196 28.5504 12.274 27.9989 13.3247 27.1449C15.4204 25.4416 17.7311 22.673 19.7182 19.2312C21.7053 15.7895 22.9477 12.4041 23.3749 9.73743C23.5891 8.40048 23.5896 7.29827 23.4146 6.48015ZM25.3497 10.0538C24.875 13.0172 23.5273 16.6337 21.4503 20.2312C19.3732 23.8288 16.9151 26.8041 14.5861 28.697C13.4245 29.6411 12.2524 30.3507 11.1392 30.7108C10.0262 31.0709 8.86121 31.1121 7.85885 30.5334C6.8565 29.9547 6.30966 28.9252 6.06497 27.7812C5.82025 26.6371 5.84879 25.2673 6.08559 23.7892C6.56037 20.8258 7.90801 17.2093 9.98505 13.6118C12.0621 10.0142 14.5202 7.03891 16.8492 5.14605C18.0108 4.20195 19.1829 3.49232 20.2961 3.13219C21.4091 2.77211 22.5741 2.73095 23.5765 3.30966C24.5788 3.88837 25.1257 4.91784 25.3704 6.06183C25.6151 7.20595 25.5865 8.57577 25.3497 10.0538Z" fill="#61DAFB"/>
</svg>
