<svg width="88" height="88" viewBox="0 0 88 88" fill="none" xmlns="http://www.w3.org/2000/svg">
<path d="M44 7.33331L39.2278 26.4219C38.2965 30.1468 37.8312 32.0092 36.8614 33.5246C36.0036 34.8651 34.8652 36.0035 33.5247 36.8613C32.0092 37.8312 30.1468 38.2965 26.422 39.2278L7.33334 44L26.422 48.7721C30.1468 49.7035 32.0092 50.1688 33.5247 51.1386C34.8652 51.9962 36.0036 53.1347 36.8614 54.4753C37.8312 55.9907 38.2965 57.8534 39.2278 61.578L44 80.6666L48.7722 61.578C49.7035 57.8534 50.1688 55.9907 51.1386 54.4753C51.9963 53.1347 53.1348 51.9962 54.4753 51.1386C55.9907 50.1688 57.8534 49.7035 61.578 48.7721L80.6667 44L61.578 39.2278C57.8534 38.2965 55.9907 37.8312 54.4753 36.8613C53.1348 36.0035 51.9963 34.8651 51.1386 33.5246C50.1688 32.0092 49.7035 30.1468 48.7722 26.4219L44 7.33331Z" stroke="white" stroke-width="6.6" stroke-linecap="round" stroke-linejoin="round"/>
</svg>
