<svg width="28" height="26" viewBox="0 0 28 26" fill="none" xmlns="http://www.w3.org/2000/svg">
<g clip-path="url(#clip0_22_37)">
<path d="M9.91667 15.1735H10.8383L11.165 14.881C10.0217 13.646 9.33333 12.0427 9.33333 10.2985C9.33333 6.40934 12.7283 3.25684 16.9167 3.25684C21.105 3.25684 24.5 6.40934 24.5 10.2985C24.5 14.1877 21.105 17.3402 16.9167 17.3402C15.0383 17.3402 13.3117 16.701 11.9817 15.6393L11.6667 15.9427V16.7985L5.83333 22.2043L4.095 20.5902L9.91667 15.1735ZM16.9167 15.1735C19.8217 15.1735 22.1667 12.996 22.1667 10.2985C22.1667 7.601 19.8217 5.4235 16.9167 5.4235C14.0117 5.4235 11.6667 7.601 11.6667 10.2985C11.6667 12.996 14.0117 15.1735 16.9167 15.1735Z" fill="white"/>
</g>
<defs>
<clipPath id="clip0_22_37">
<rect width="28" height="26" fill="white" transform="matrix(-1 0 0 1 28 0.00683594)"/>
</clipPath>
</defs>
</svg>
