<svg width="50" height="56" viewBox="0 0 50 56" fill="none" xmlns="http://www.w3.org/2000/svg">
<path d="M49.3548 0L44.8584 50.3705L24.6472 55.9737L4.49158 50.3784L0 0H49.3548Z" fill="#264DE4"/>
<path d="M41.009 47.1628L44.8515 4.1189H24.6774V51.6905L41.009 47.1628Z" fill="#2965F1"/>
<path d="M10.2969 22.8037L10.8507 28.9823H24.6774V22.8037H10.2969Z" fill="#EBEBEB"/>
<path d="M24.6774 10.2974H24.656H9.18414L9.74581 16.4761H24.6774V10.2974Z" fill="#EBEBEB"/>
<path d="M24.6774 45.2789V38.8504L24.6503 38.8577L17.769 36.9996L17.3292 32.0718H13.9854H11.1267L11.9923 41.7732L24.6489 45.2868L24.6774 45.2789Z" fill="#EBEBEB"/>
<path d="M32.2644 28.9818L31.5472 36.9951L24.656 38.8551V45.2833L37.3227 41.7727L37.4156 40.7289L38.8676 24.4624L39.0183 22.8032L40.1338 10.2974H24.656V16.4761H33.3624L32.8002 22.8032H24.656V28.9818H32.2644Z" fill="#1E2235"/>
</svg>
