<svg width="36" height="53" viewBox="0 0 36 53" fill="none" xmlns="http://www.w3.org/2000/svg">
<path d="M8.83334 52.9999C13.7093 52.9999 17.6667 49.0426 17.6667 44.1666V35.3333H8.83334C3.95734 35.3333 0 39.2906 0 44.1666C0 49.0426 3.95734 52.9999 8.83334 52.9999Z" fill="#0ACF83"/>
<path d="M0 26.5001C0 21.6241 3.95734 17.6667 8.83334 17.6667H17.6667V35.3334H8.83334C3.95734 35.3334 0 31.376 0 26.5001Z" fill="#A259FF"/>
<path d="M0 8.83333C0 3.95733 3.95734 0 8.83334 0H17.6667V17.6667H8.83334C3.95734 17.6667 0 13.7093 0 8.83333Z" fill="#F24E1E"/>
<path d="M17.6666 0H26.5C31.376 0 35.3333 3.95733 35.3333 8.83333C35.3333 13.7093 31.376 17.6667 26.5 17.6667H17.6666V0Z" fill="#FF7262"/>
<path d="M35.3333 26.5001C35.3333 31.376 31.376 35.3334 26.5 35.3334C21.624 35.3334 17.6666 31.376 17.6666 26.5001C17.6666 21.6241 21.624 17.6667 26.5 17.6667C31.376 17.6667 35.3333 21.6241 35.3333 26.5001Z" fill="#1ABCFE"/>
</svg>
