<svg width="54" height="54" viewBox="0 0 54 54" fill="none" xmlns="http://www.w3.org/2000/svg">
<path d="M52.9817 24.5944L29.4047 1.01837C28.0478 -0.339457 25.8456 -0.339457 24.4869 1.01837L19.5911 5.91432L25.8017 12.1251C27.245 11.6374 28.9 11.9645 30.0504 13.115C31.2064 14.2729 31.5312 15.9421 31.0317 17.39L37.0171 23.3756C38.4652 22.8768 40.136 23.1995 41.2926 24.358C42.909 25.9738 42.909 28.5926 41.2926 30.2095C39.6757 31.8266 37.0569 31.8266 35.4393 30.2095C34.2234 28.9924 33.923 27.2067 34.5386 25.7089L28.9567 20.1269L28.9561 34.8162C29.3607 35.0163 29.7303 35.2806 30.0504 35.5988C31.6668 37.2147 31.6668 39.8337 30.0504 41.4518C28.4336 43.0681 25.8135 43.0681 24.199 41.4518C22.5826 39.8337 22.5826 37.2149 24.199 35.5991C24.5864 35.2115 25.0467 34.9046 25.5534 34.696V19.8698C25.046 19.6626 24.5854 19.3555 24.199 18.9667C22.9743 17.7437 22.6798 15.9467 23.3074 14.4429L17.1851 8.3199L1.01883 24.4854C-0.33961 25.8445 -0.33961 28.0469 1.01883 29.405L24.5962 52.9815C25.9536 54.3395 28.1554 54.3395 29.5144 52.9815L52.9815 29.5144C54.3395 28.156 54.3395 25.9523 52.9815 24.5944" fill="#DE4C36"/>
</svg>
