<svg width="49" height="47" viewBox="0 0 49 47" fill="none" xmlns="http://www.w3.org/2000/svg">
<path d="M24.0949 0C10.7894 0 0 10.7875 0 24.0949C0 34.7408 6.90391 43.7725 16.4776 46.9586C17.6817 47.1816 18.1239 46.4359 18.1239 45.7995C18.1239 45.225 18.1014 43.3268 18.0912 41.3134C11.3878 42.771 9.97338 38.4706 9.97338 38.4706C8.87734 35.6855 7.2981 34.9451 7.2981 34.9451C5.11207 33.4496 7.46289 33.4802 7.46289 33.4802C9.88249 33.6503 11.1565 35.9633 11.1565 35.9633C13.3055 39.6469 16.7932 38.5819 18.1682 37.9664C18.3843 36.4089 19.0089 35.3461 19.6979 34.7444C14.3462 34.135 8.72012 32.0689 8.72012 22.8365C8.72012 20.206 9.66139 18.0565 11.2028 16.3691C10.9526 15.7622 10.128 13.3116 11.4362 9.99265C11.4362 9.99265 13.4595 9.34505 18.064 12.4625C19.9859 11.9285 22.0472 11.6609 24.0949 11.6518C26.1426 11.6609 28.2054 11.9285 30.131 12.4625C34.73 9.34505 36.7505 9.99265 36.7505 9.99265C38.062 13.3116 37.237 15.7622 36.9868 16.3691C38.5316 18.0565 39.4664 20.2058 39.4664 22.8365C39.4664 32.0909 33.8298 34.1287 28.4645 34.7251C29.3287 35.4729 30.0987 36.9393 30.0987 39.1871C30.0987 42.411 30.0708 45.0058 30.0708 45.7995C30.0708 46.4406 30.5044 47.192 31.726 46.9554C41.2944 43.7657 48.1896 34.7372 48.1896 24.0949C48.1896 10.7875 37.4017 0 24.0949 0Z" fill="white"/>
<path d="M9.02426 34.3236C8.97135 34.4432 8.78275 34.4791 8.61135 34.3971C8.43655 34.3185 8.33829 34.1552 8.39498 34.0351C8.44695 33.9119 8.63554 33.8775 8.80996 33.9602C8.98514 34.0387 9.08492 34.2034 9.02426 34.3236ZM10.2095 35.3811C10.0946 35.4877 9.86991 35.4382 9.71741 35.2698C9.55981 35.1018 9.53033 34.8773 9.64692 34.769C9.76541 34.6626 9.98329 34.7123 10.1413 34.8805C10.2989 35.0504 10.3295 35.2736 10.2093 35.3813L10.2095 35.3811ZM11.0226 36.7342C10.8749 36.8368 10.6334 36.7406 10.4843 36.5263C10.3367 36.3122 10.3367 36.0552 10.4875 35.9522C10.6371 35.8492 10.8749 35.9418 11.026 36.1544C11.1734 36.3723 11.1734 36.6293 11.0225 36.7343L11.0226 36.7342ZM12.3976 38.3013C12.2655 38.4468 11.9843 38.4079 11.7783 38.2091C11.5678 38.0148 11.5091 37.7391 11.6415 37.5934C11.7751 37.4475 12.058 37.4885 12.2655 37.6856C12.4747 37.8795 12.5386 38.1573 12.3978 38.3013H12.3976ZM14.1747 38.8304C14.1167 39.019 13.8457 39.1048 13.5728 39.0247C13.3003 38.9421 13.1219 38.721 13.1769 38.5303C13.2336 38.3404 13.5057 38.251 13.7807 38.3368C14.0528 38.419 14.2316 38.6384 14.1749 38.8304H14.1747ZM16.1975 39.0547C16.2043 39.2535 15.9728 39.4183 15.6863 39.4219C15.3981 39.4281 15.1651 39.2673 15.1621 39.0719C15.1621 38.8712 15.3883 38.708 15.6763 38.7032C15.9628 38.6976 16.1975 38.8573 16.1975 39.0547ZM18.1843 38.9786C18.2187 39.1725 18.0195 39.3716 17.7351 39.4245C17.4555 39.4756 17.1966 39.356 17.1608 39.1638C17.1261 38.965 17.329 38.766 17.6081 38.7144C17.8931 38.6649 18.148 38.7815 18.1843 38.9786Z" fill="white"/>
</svg>
