<svg width="63" height="73" viewBox="0 0 63 73" fill="none" xmlns="http://www.w3.org/2000/svg">
<path d="M10.0654 32.1409C7.98697 33.1184 2.48582 37.5185 1.42628 38.8222C0.325935 40.1259 3.12425e-05 38.0889 1.14099 34.7075C2.03728 31.9779 4.3196 28.2704 8.15002 25.0928C10.3911 23.2595 15.3221 20.6115 18.3374 19.0632C18.9488 18.7372 26.8544 15.3965 33.9042 13.7262C34.5156 13.5632 33.1708 14.7447 32.9669 15.3965C31.9074 18.4927 10.7578 31.7741 10.7578 31.7741L10.0654 32.1409ZM39.8537 69.4995C40.2204 71.6995 39.8945 71.8625 37.6126 72.1477C35.3304 72.4329 33.6597 71.5772 33.0485 71.007C32.4371 70.4364 32.3151 69.1737 32.9263 68.033C33.2932 67.2995 33.6599 67.0551 33.8638 66.1589C34.0674 65.3034 34.2305 65.0996 34.3933 64.7738C34.5562 64.4884 34.5972 64.2031 34.6378 62.207C34.6786 60.2109 34.6378 56.4626 34.8417 54.8739C35.0456 53.2444 42.0954 55.6071 42.0954 55.6071C42.0954 55.6071 40.4245 59.7626 39.9763 60.7811C39.528 61.7998 39.5688 63.7551 39.5688 64.1625C39.5688 64.57 39.4059 65.3846 39.2835 65.4254C39.1613 65.466 39.691 66.5253 39.4464 67.1365C39.2833 67.707 39.8131 69.1737 39.8537 69.4995ZM42.5433 7.20776C42.2987 5.65965 42.5433 2.60384 42.8692 2.1152C43.8882 0.729907 49.2671 0.567095 50.4082 2.19661C50.8972 2.92986 50.8564 4.64098 50.7749 5.74106C50.6935 6.84093 50.4082 9.2039 50.3674 9.97815C50.3268 10.5486 44.4179 11.4447 43.1139 9.89655C42.747 9.48932 42.5433 7.20776 42.5433 7.20776ZM54.5239 65.5476C57.0097 67.3403 58.9249 67.6662 60.1881 68.318C61.4513 68.9701 61.1254 70.2329 59.0064 70.5996C57.2948 70.9254 54.6054 70.2736 52.8124 70.2736C51.0194 70.2736 47.0258 70.4774 45.9662 69.7441C44.7438 68.8887 45.2734 67.2995 45.2734 67.2995C45.5995 66.4035 46.4144 64.4069 46.1699 62.7774C45.9254 61.1479 45.5993 60.2517 44.9881 58.7442C44.3769 57.2368 43.9288 53.5296 44.4994 53.3258C45.0699 53.122 44.9067 53.3258 45.6403 53.4886C46.3737 53.6514 47.1888 53.896 48.7781 53.896C50.3674 53.896 52.1196 53.6514 52.731 53.5294C53.3422 53.4072 53.8311 53.2848 53.6272 54.5479C53.4236 55.8107 52.8124 58.1737 52.7716 60.007C52.731 61.8404 52.731 63.9589 52.8532 64.3255C52.9752 64.6922 53.8719 65.0996 54.5239 65.5476Z" fill="#010101"/>
<path d="M45.8034 11.2819C41.3209 15.1524 32.641 16.2115 19.7641 21.1818C16.4632 22.4447 7.66125 26.2336 5.54218 30.1854C12.6734 26.0708 15.3223 31.7336 15.8927 37.5594C16.4222 43.0185 19.1527 45.8705 26.1617 45.7073C33.3746 45.5445 35.5751 49.7406 37.5717 54.6704C41.443 35.8074 47.6371 32.141 51.6304 28.9226C60.1067 22.0373 49.6746 9.89663 45.8034 11.2819Z" fill="#8AC640"/>
<path d="M45.8034 11.2817C35.0453 15.0298 24.4094 15.9669 11.8992 23.6668C8.92445 25.5001 2.64886 29.6554 1.42627 37.6C5.99012 32.548 16.5445 26.1928 29.4624 22.1595C35.9824 20.1224 40.7504 18.7781 46.5368 16.5373C46.1295 13.9297 46.1295 12.9113 45.8034 11.2817Z" fill="#8AC640"/>
<path d="M59.5361 33.6074C59.5361 33.6074 58.7619 36.2556 57.2134 37.1112C57.2134 37.1112 56.0724 37.5186 53.7905 36.2558C53.1385 35.8891 52.6495 34.6262 52.6901 34.2186C52.7309 33.2407 53.3421 32.7927 53.3421 32.7927C53.3421 32.7927 53.9943 31.6926 54.7684 31.7334C55.5428 31.774 56.8469 31.8963 57.2544 31.5296C57.6209 31.1222 59.6177 32.2629 59.5361 33.6074ZM42.91 7.98178C42.91 7.98178 42.7472 10.0597 42.4619 11.3632C42.4211 11.6078 41.1987 11.7298 40.302 12.0967C42.0135 16.9854 52.3234 16.9446 53.6682 14.541C53.0162 14.093 51.7122 13.4004 51.101 13.1559C50.4896 12.9113 50.5304 12.9521 50.4896 11.8115C50.449 10.6706 50.3674 8.55222 50.2858 7.98178C50.2043 7.41135 43.8879 7.41135 42.91 7.98178Z" fill="#010101"/>
<path d="M43.3176 7.98191C43.3176 7.98191 43.3176 9.16339 43.1953 10.3041C43.1547 10.8337 43.1139 11.1595 43.0325 11.567C42.9917 11.8116 44.4179 12.789 44.8254 14.9484C46.7815 19.3075 51.3049 17.1484 53.1793 15.0706C52.5273 14.6224 51.4678 14.0113 50.2454 13.5225C49.634 13.2779 49.9193 12.7484 49.8786 11.6078C49.8378 10.4671 49.6748 8.79657 49.5934 8.18553C49.5115 7.57448 44.2957 7.41147 43.3176 7.98191Z" fill="#F0EFEF"/>
<path d="M42.91 7.98203C42.91 7.98203 42.8692 8.71548 42.7471 9.57094C43.2767 10.1004 43.9695 10.8338 44.4995 11.2821C44.8662 11.6081 45.7625 11.5673 46.5777 11.5673C47.3112 11.5673 47.9632 11.6487 48.2485 11.4859C48.9007 11.1599 49.8378 10.3452 50.3675 9.73395C50.3269 9.0007 50.2861 8.30805 50.2455 7.98203C50.2043 7.41159 43.8879 7.41159 42.91 7.98203Z" fill="#010101"/>
<path d="M46.6184 11.0782C46.1292 11.0782 45.5586 11.0376 45.1105 10.956C44.9066 10.9154 44.703 10.7932 44.5399 10.7116C44.2546 10.5077 43.9693 10.2635 43.6436 10.0189C42.9914 9.53007 42.9508 9.24485 42.9508 9.12284C43.2361 6.55606 42.8692 4.39691 42.8692 4.39691C42.8692 4.39691 42.5839 3.29683 44.1324 3.01161C45.6809 2.72639 46.6182 2.68579 46.6182 2.68579C46.6182 2.68579 47.5963 2.68579 49.104 3.01161C50.6525 3.29683 50.3672 4.39691 50.3672 4.39691C50.3672 4.39691 50.0005 6.55606 50.2857 9.12284C50.2857 9.24485 50.2451 9.53007 49.5929 10.0189C49.0223 10.4263 48.5742 10.8744 48.1261 10.956C47.6777 11.0376 47.1071 11.0782 46.6184 11.0782Z" fill="#010101"/>
<path d="M46.6184 1.62646C43.9289 1.62646 43.399 2.35972 42.6247 3.17457C42.4619 3.37819 42.5839 4.60047 42.8694 7.20785H43.2361C43.2361 7.20785 42.9914 6.4744 43.0322 5.61894C43.073 4.76348 43.2361 4.80429 43.1137 4.60047C42.9508 4.35585 42.6247 3.94843 43.3583 3.5412C44.0918 3.13377 45.2327 3.86702 46.6184 3.90782C48.0038 3.86702 49.1856 3.13377 49.919 3.5412C50.6525 3.94843 50.3266 4.35585 50.1637 4.60047C50.0006 4.84489 50.2043 4.76328 50.2451 5.61894C50.2857 6.4744 50.0413 7.20785 50.0413 7.20785H50.408C50.6525 4.60047 50.8155 3.45979 50.6933 3.25598C50.0005 2.35972 49.3078 1.66707 46.6184 1.62646ZM59.5361 33.7297C59.5361 33.7297 58.7618 36.2149 57.2542 37.0703C56.928 36.9075 56.9689 36.6631 56.6836 36.2963C56.6019 36.1743 56.3167 36.0925 56.1946 35.9705C56.0724 35.8483 56.1132 35.6444 55.9093 35.4816C55.7463 35.3186 55.624 35.4408 55.461 35.3186C55.2981 35.1558 55.2571 34.952 55.1351 34.83C55.0535 34.7484 54.7276 34.7078 54.6461 34.6262C54.4423 34.4223 52.6495 34.0557 52.7309 33.6483C52.8938 33.0371 53.2199 32.589 53.2199 32.589C53.2199 32.589 53.9941 31.4483 54.7682 31.4889C55.5424 31.5297 56.276 31.6928 56.6836 31.3261C57.1319 30.9185 59.6585 32.426 59.5361 33.7297Z" fill="#010101"/>
<path d="M54.2386 15.7227C54.2386 15.7227 56.8058 15.1114 58.5582 16.7819C60.3105 18.4931 60.1881 20.6114 59.6585 21.9151C60.1066 22.4447 60.9217 23.9112 60.3105 25.6632C63 27.9445 61.8182 31.4484 59.414 33.7705C59.414 33.7705 58.8434 31.652 56.5615 31.5298C56.6429 30.7151 54.4424 30.0631 55.4612 27.9445C53.9127 27.5779 53.9535 26.5186 53.709 25.2151C53.5051 23.9112 54.2386 15.7227 54.2386 15.7227Z" fill="#010101"/>
<path d="M53.3013 16.8631C53.3013 16.8631 56.2761 15.3558 58.0284 17.0669C59.7806 18.7781 59.2914 20.652 58.7619 21.9557C59.21 22.4851 60.2696 23.9928 59.6175 25.7852C59.4953 26.1926 58.5988 26.1926 57.9466 27.2519C59.5765 26.3146 60.5955 26.5592 60.9622 27.7405C61.5328 29.5738 60.2694 31.7738 59.1692 32.9961C59.1692 32.9553 59.1284 32.9145 59.1284 32.8739C58.9655 33.4851 58.7617 34.6664 57.5393 35.9701C56.9279 36.6219 56.4389 36.5405 55.7461 36.3775C54.9313 36.1737 54.646 35.8069 53.505 35.196C52.853 34.8294 53.2197 34.3812 53.2197 34.0145C53.2197 33.9331 53.3011 33.8107 53.4236 33.6479C53.505 33.4441 53.7495 33.1185 54.1162 32.7516C54.1162 32.7516 54.646 32.0184 55.4204 32.059C56.1947 32.0998 57.0095 31.937 57.2134 31.7332C57.2134 30.3073 55.5835 30.2665 56.1538 27.8221C56.1947 27.6999 56.3985 27.4961 57.0503 27.4147C56.0722 27.2109 55.6241 27.1701 54.9313 26.5184C54.4423 26.0704 54.0756 25.4999 53.9531 24.7667C53.7089 23.5038 53.3013 16.8631 53.3013 16.8631Z" fill="#F0EFEF"/>
<path d="M44.703 14.2965C44.4585 13.9705 43.1953 12.341 40.7909 11.6892C40.0981 11.4854 39.65 12.0558 38.9574 12.4632C38.7535 12.341 37.857 11.9336 37.3681 12.2186C36.8791 12.5036 36.5532 12.789 36.064 12.9927C35.8194 12.8704 35.1676 12.8704 34.6378 13.0741C34.108 13.2371 33.293 13.6037 32.5187 14.663C32.0298 16.4149 41.1577 15.111 41.1577 15.111L44.703 14.2965Z" fill="#010101"/>
<path d="M44.7846 14.2966C43.4804 13.8483 43.6843 12.341 40.7909 12.0966C40.2204 12.0558 39.8536 12.5038 39.4461 12.789C39.65 12.9929 39.8536 13.3187 39.9759 13.6445C39.6092 13.2373 38.9572 12.7074 38.305 12.5852C37.6938 12.4632 37.2862 12.9113 36.6342 13.2373C36.7563 13.3593 36.8787 13.5631 37.0416 13.8077C36.471 13.4411 36.0636 13.3189 35.2894 13.6039C34.7596 13.7667 33.7409 14.2149 32.9667 15.315C32.4777 17.0669 41.1983 15.1112 41.1983 15.1112L44.7846 14.2966Z" fill="#8AC640"/>
<path d="M52.4456 14.9486C52.4456 14.9486 52.4456 14.5004 52.4048 14.0931C52.4048 14.0117 52.0789 13.8079 52.0789 13.7265L51.9975 13.6449C51.9975 13.6449 52.6495 13.2783 53.1385 13.4821C53.668 13.6449 53.9533 14.3375 53.9533 14.3375C54.8906 14.0117 54.972 14.3783 55.4204 14.8672C56.3985 14.6634 56.5205 15.03 57.1319 15.9265C57.1319 15.9265 56.3985 15.8042 54.9722 16.0485C53.5866 16.2521 52.4456 14.9078 52.4456 14.9486Z" fill="#010101"/>
<path d="M52.2826 14.7446C52.2826 14.7446 52.5271 14.5408 52.4454 14.5C52.8936 14.2556 53.505 13.9706 53.7903 14.7446C54.7276 14.4186 54.8498 14.8668 55.2979 15.3559C56.4389 14.8262 56.5203 15.4779 56.602 15.7631C56.2352 15.7631 55.7057 15.8039 54.972 15.8853C53.5866 16.0891 52.2418 14.7038 52.2826 14.7446Z" fill="#8AC640"/>
<path d="M38.4276 13.7263C38.4276 13.7263 40.7503 14.541 42.7064 14.4188C44.6624 14.256 48.0038 14.0929 49.7968 15.1522C49.7968 15.1522 51.6306 14.5002 53.3421 14.9484C55.0539 15.3964 58.1915 18.3298 57.2544 21.4261C57.1727 21.6299 56.643 21.9557 56.0318 22.1595C56.0318 22.1595 56.3579 23.5446 55.7873 24.6853C55.2167 25.7854 53.9535 27.9039 53.9127 30.8371C53.8721 31.3259 53.7907 32.3444 53.709 32.8333C50.5304 32.7112 45.6405 31.5296 40.832 31.6112C40.8726 31.0817 40.9134 30.7557 40.9542 30.2261H41.0762C40.8318 28.8816 40.7503 28.1889 40.5057 27.1705C38.9572 26.1928 37.327 25.0521 35.9418 22.8928C34.597 20.7334 38.4276 13.7263 38.4276 13.7263ZM54.1572 35.7261C54.1572 35.7261 56.6838 44.7705 53.709 48.5594C53.709 48.5594 54.1572 50.3111 53.1385 52.1852C52.9754 52.9999 52.7715 53.7333 52.6495 54.548C52.1197 57.9294 51.2231 59.3553 50.9786 64.7737L48.5334 64.7331C48.5334 64.7331 48.2481 60.822 47.3924 58.7443C46.9037 57.563 44.9881 55.9739 45.0699 54.3852C45.1513 53.1629 45.3958 52.1444 47.4743 50.5147C47.6371 48.1519 45.2736 45.911 45.6405 37.1112L54.1572 35.7261Z" fill="#010101"/>
<path d="M53.4237 35.3592C54.0757 39.5147 55.5834 45.6665 52.8532 48.6812C53.0143 49.4456 53.0281 50.2337 52.8938 51.0033C52.8123 51.4922 52.6493 52.0218 52.4456 52.592C52.0381 53.5699 51.875 54.9958 51.7528 55.8513C51.223 59.2327 51.223 59.3959 50.9786 64.8143L48.5334 64.7735C48.5334 64.7735 48.2481 60.8624 47.3924 58.7849C46.9037 57.6034 45.8847 56.5849 45.8033 54.996C45.7219 53.7739 46.5776 51.3295 48.6152 51.411C48.493 46.4814 46.2108 47.4591 45.5997 37.1926L53.4237 35.3592ZM38.4276 13.7263C38.4276 13.7263 39.3241 14.0115 40.302 14.0929C41.2801 14.1743 42.3396 14.0929 43.2767 14.0521C45.2327 13.8893 48.0038 13.6855 49.8376 14.7448C49.8376 14.7448 50.8563 14.4188 51.9567 14.5002C52.4456 14.541 52.9348 14.9484 53.5052 15.1114C55.2981 15.5594 57.0097 18.5335 56.2352 21.2224C56.1538 21.4263 55.5832 21.2224 54.9312 21.4263C55.0533 21.9967 55.1351 23.3004 54.4829 24.6855C53.7903 26.0708 52.8938 27.8633 53.0566 31.2855C48.7779 31.0817 46.8627 30.7967 42.6245 30.5929C42.2578 29.0854 42.0131 27.5781 41.9725 26.804C42.5431 26.5188 42.8688 26.2746 43.3173 25.7856C42.0949 25.9894 41.6058 25.9078 40.8722 25.5003C40.1387 25.0929 38.8347 23.7892 38.1827 22.9338C38.1013 22.8522 37.6531 24.1965 36.6344 24.2375C36.2675 23.7078 37.816 22.2003 37.5307 21.6301C36.5122 19.5521 38.4276 13.7263 38.4276 13.7263Z" fill="#F0EFEF"/>
<path d="M53.7495 31.9778C53.7495 31.9778 53.8309 33.4445 53.8309 33.8111C53.8309 34.2185 54.157 35.4406 54.1976 36.0111C53.7495 36.7851 51.7935 38.537 48.2481 39.1889C44.7436 39.9221 40.0981 34.4224 40.0981 34.4224C40.2204 33.8927 40.6279 32.3444 40.9132 31.5297C40.954 31.4483 41.0354 31.2445 41.0354 31.1631C41.4024 30.6335 53.7495 31.9778 53.7495 31.9778Z" fill="#010101"/>
<path d="M52.8532 32.1C52.8532 33.1185 53.016 33.8519 53.1385 34.5038C53.3421 35.6853 53.668 36.4593 53.668 37.2334C53.668 39.5961 50.5711 39.1887 47.9628 39.2703C44.4583 40.0038 41.4836 34.5038 41.4836 34.5038C41.7281 33.5667 41.8911 32.5076 42.2578 31.6112C42.2984 31.1223 42.3801 30.5113 42.4207 30.2261C47.3923 30.2261 50.8968 30.5113 52.9344 30.7147C53.016 31.1629 52.9346 31.937 52.8532 32.1Z" fill="#F0EFEF"/>
<path d="M48.9409 37.3554C48.9409 37.3554 46.7812 32.548 40.3018 33.9741C38.7535 38.3332 36.675 43.3444 38.0198 48.7628C36.675 50.5961 35.1265 51.6148 35.1265 54.996C35.1265 58.3774 35.2896 58.9479 35.2896 58.9479L40.0573 59.1925C40.0573 59.1925 41.6058 57.1963 42.217 55.037C42.38 54.4258 42.5431 53.3259 42.4208 52.063C42.5837 51.8186 43.2765 51.2483 43.3581 50.1483C43.3581 50.1483 45.6809 48.9262 47.0257 45.9522C48.2891 43.2628 47.963 40.9406 48.9409 37.3554Z" fill="#010101"/>
<path d="M48.9409 37.3555C48.8189 36.9074 47.1888 32.5075 41.1577 33.811C37.6125 43.2629 38.9165 47.1739 39.4461 48.8849C37.0417 51.9403 35.9416 52.5921 36.4307 58.7848H39.6094C41.0762 56.4626 41.4023 55.6069 41.4838 52.5515C41.4838 52.4293 41.0356 52.7959 40.7095 53.2034C40.9542 51.9405 41.6468 51.6961 42.1766 50.922C42.421 50.596 42.6247 50.1072 42.6247 49.4553C45.4772 47.5406 46.5368 45.1368 47.1479 42.6516C47.6371 40.9407 48.2075 38.1295 48.9409 37.3555Z" fill="#F0EFEF"/>
<path d="M38.8758 30.7964C38.8758 30.7964 39.9761 30.837 40.9542 31.163C41.8915 31.4888 41.8915 31.6925 42.2582 32.1001C42.6249 32.5077 43.5214 33.1186 43.3586 33.7296C43.2769 34.0556 43.0733 34.137 42.788 34.4222C42.6658 34.5444 41.7691 35.5221 41.5654 35.6443C41.4432 35.7257 41.2801 35.8481 41.1579 35.9295L40.5467 36.337C40.1392 36.5408 39.8539 36.663 39.4057 36.6222C39.4057 36.6222 38.387 36.5814 37.7348 35.8889C37.7348 35.8889 37.6534 35.5629 37.8164 35.4001C37.8164 35.4001 36.9605 34.6667 36.7161 34.1778C36.4714 33.6892 36.4714 32.9965 36.6346 32.6299C36.7161 32.2629 38.3052 31.2444 38.8758 30.7964ZM39.8947 70.4366L39.7724 71.4552C39.7724 71.4552 39.4057 71.9033 36.6755 71.8627C33.9044 71.8219 33.1709 70.9664 32.9265 70.5182L32.7636 69.4589C32.7636 69.4589 33.2934 68.6848 33.4156 68.6848C34.3121 68.7662 37.3685 69.9885 39.4875 70.3143C39.6908 70.3143 39.7314 70.3958 39.8947 70.4366ZM45.8033 68.3588C45.8033 68.8068 45.7625 68.8068 45.7625 69.2551C46.2515 69.6217 47.4743 69.8255 49.7968 69.7845C53.1791 69.7031 56.3169 70.8032 60.1473 70.1511L60.1881 69.4179L59.8214 69.3773L46.2515 68.2772L45.8033 68.3588Z" fill="#010101"/>
<path d="M48.7781 69.7847H49.7968C51.9975 69.7033 54.0758 70.1921 56.3169 70.3144C57.4987 70.2735 58.9657 69.9883 58.8435 69.1329L47.2704 68.155C46.5776 68.9291 47.1072 69.5809 48.7781 69.7847ZM35.4935 52.6331C35.8602 52.8775 38.346 54.3442 42.3803 54.1404C42.2987 54.9145 42.3395 56.422 40.5465 59.07C39.65 60.3737 38.8756 62.6552 38.7127 65.5478C38.7535 66.1997 39.1202 66.7699 38.6313 67.6256C38.7941 68.155 39.4461 69.2143 39.7723 69.8661C40.0982 70.5182 40.2612 71.2514 38.1013 71.2922C35.9008 71.3328 32.3555 71.0884 32.8447 69.3775C33.0893 68.4812 33.782 67.5442 33.8636 67.1773C33.945 66.8107 33.945 65.7108 34.6376 64.9774C35.249 62.9404 35.0451 60.9849 34.9231 59.1516C34.7192 57.2366 34.6784 54.1812 35.4935 52.6331ZM39.2833 19.4298C42.1766 15.5593 39.7314 12.4633 35.0862 13.4002C33.2116 13.7668 31.3372 15.0707 31.2147 17.4335C30.6035 17.5149 29.2181 17.5963 28.5253 20.1222C27.9957 22.0778 27.7104 22.4444 26.7729 23.4221C26.1617 24.1147 26.8137 25.5406 27.2619 26.5593C28.7698 30.0629 33.4152 30.3888 36.553 33.0369C37.6126 32.7517 38.7127 31.5704 39.0388 30.7964C36.39 27.6592 36.9604 26.4371 35.9008 24.8076C37.042 24.3999 39.65 22.8112 39.2833 19.4298Z" fill="#010101"/>
<path d="M38.7127 19.1855C38.8755 18.9409 39.1608 18.4114 39.2833 18.2076C39.3241 18.1668 39.7722 18.9409 39.813 18.9003C40.9132 17.1076 41.1985 14.5002 39.9351 14.2558C39.6498 14.215 39.1202 14.0929 38.6719 13.9297C37.857 13.6445 37.1236 13.6445 35.8194 13.8891C34.0264 14.215 32.2334 15.5186 32.2334 17.3928C32.2334 17.515 33.4964 17.8816 33.8633 19.3891C33.2519 18.5335 32.1924 17.5964 30.9292 18.4112C29.5844 19.2667 30.2772 21.2222 28.4842 23.2592C27.8728 23.9518 27.9545 24.7667 28.6063 26.3962C29.6658 28.963 34.6782 30.3481 37.4085 32.7924C38.0605 32.5072 38.5086 31.8554 38.8347 31.3665C37.0009 29.4518 36.2673 27.6591 35.7377 26.3554C35.0857 24.8481 34.3521 23.9926 32.9258 22.8516C33.6595 23.1368 34.2301 23.422 34.5558 23.6664C34.9225 23.9108 35.4522 23.9516 35.9414 23.7886C37.694 23.178 38.6313 20.7334 38.7127 19.1855Z" fill="#F0EFEF"/>
<path d="M56.4391 19.8372C56.3168 21.3853 55.1759 20.6113 54.5647 20.3261C53.3421 19.7964 52.1195 19.4298 50.6933 19.4298C49.267 19.4298 47.4332 19.552 45.8441 19.9594C43.6436 20.5705 42.9914 20.5299 42.0135 20.0408C41.0356 19.5112 39.3243 18.2075 39.3243 18.2075C39.3243 18.2075 39.2834 18.6149 39.691 19.1446C40.2205 19.7964 41.4025 20.6113 42.9916 21.1407C43.7659 21.3853 44.3773 21.2221 45.0701 21.0593C48.6968 20.1631 52.5272 20 55.7465 21.9556C55.9095 22.037 56.4801 21.7926 56.7246 21.4259C57.0503 20.8965 56.4391 19.8372 56.4391 19.8372Z" fill="#010101"/>
<path d="M37.8978 35.3591C38.2237 35.5629 38.6313 35.6852 39.0794 36.0518C39.0794 36.0518 38.7127 36.0518 38.5498 35.889C38.346 35.7668 37.9384 35.4001 37.8978 35.3591Z" fill="#0A1825"/>
<path d="M49.6746 3.05236C49.5524 2.68574 48.6557 2.03369 46.5776 2.03369C44.3363 2.03369 43.6843 2.72634 43.6437 3.09297C43.6437 3.21517 43.4806 4.51907 43.4398 5.0485C43.4398 5.0485 43.4398 5.70035 43.4804 6.67802C43.5212 7.32986 43.6843 7.69649 43.7657 8.55215C43.8471 9.44821 44.0918 10.0186 44.54 10.7521C44.7438 10.8741 44.9067 10.9965 45.1105 11.0373C45.9256 11.2001 47.3519 11.2409 48.1261 11.0373C48.5742 10.9151 49.1448 10.1411 49.2671 9.44841C49.4299 8.59295 49.593 7.98171 49.6338 7.45227C49.7152 6.92283 49.756 5.74115 49.7966 5.41513C49.9191 4.51907 49.7152 3.13377 49.6746 3.05236Z" fill="#F0EFEF"/>
<path d="M45.3958 53.4072C45.3958 53.4072 47.5557 54.3443 52.894 53.5294C52.894 53.5294 51.3863 61.1072 52.0792 64.8958C52.0792 64.8958 52.7718 65.8737 57.9064 67.7476C57.9064 67.7476 60.1883 68.3181 60.1069 69.4589C60.1069 69.4589 60.1883 69.7034 57.4174 69.6218C54.6466 69.5402 52.0383 69.0513 50.2046 69.0513C48.3708 69.0513 46.4148 69.1327 46.0889 68.6033C45.7221 68.1145 46.1703 66.8514 46.7 66.1179C47.2708 65.3441 47.1076 64.7734 47.067 63.3885C46.9443 59.7627 44.1732 56.0146 45.3958 53.4072Z" fill="#010101"/>
<path d="M44.9474 54.0998C44.6621 54.5073 44.9881 56.0552 45.3956 57.5627C45.8031 59.07 46.6998 59.9664 46.9035 62.4514C47.1071 64.8958 47.1479 65.2218 46.4551 66.6475C45.7623 68.0732 45.5586 69.3771 47.9628 69.4179C50.367 69.4587 51.6712 69.3771 54.1161 69.7439C56.5613 70.1105 57.417 70.2328 58.7618 70.0291C60.1067 69.8255 60.3917 69.3771 59.8214 68.9699C59.2508 68.5624 56.8872 68.1144 55.8685 67.2993C54.8904 66.5661 52.1195 65.3438 52.0789 65.018C51.9567 63.9179 51.9159 59.9254 52.1195 58.6217C52.3234 57.3179 52.6085 55.4439 52.6901 54.9551C52.7717 54.4663 53.1791 53.9772 52.4862 54.1402C51.7936 54.303 49.1856 54.6699 47.2296 54.5477C45.2735 54.4256 45.0699 53.9774 44.9474 54.0998Z" fill="#8AC640"/>
<path opacity="0.3" d="M46.3331 66.6886C47.0257 67.0144 48.0446 67.2591 48.8189 67.2591C48.8189 67.2591 48.5334 68.6036 48.9817 69.4182C49.4299 70.2331 45.7217 69.7442 45.7217 69.7442L45.5588 66.8516L46.3331 66.6886ZM57.1319 70.1923C57.7839 69.9885 58.2323 69.2552 57.7025 68.5628C57.1319 67.8701 56.643 67.7479 57.3764 67.7073C58.11 67.6665 60.7995 69.296 60.7995 69.296L59.4138 70.5589L57.1319 70.1923ZM44.8252 55.6887C45.7625 56.0147 47.1888 56.0961 48.4113 56.0553C49.6337 56.0147 51.4675 55.8515 52.6495 55.4442C53.8311 55.0368 53.3421 55.8923 53.3421 55.8923L52.6901 56.5035C52.6901 56.5035 51.1416 57.1146 48.6152 57.074C45.6405 57.0331 44.7438 56.7073 44.7438 56.7073L44.8252 55.6887ZM44.9066 57.7258C45.8441 58.0518 47.2702 58.1332 48.4928 58.0924C49.7152 58.0518 51.3453 58.0518 52.527 57.6036C53.016 57.4408 52.7309 58.1332 52.7309 58.1332L52.527 58.4999C52.527 58.4999 50.9377 59.0703 48.452 59.0293C45.4772 58.9887 44.9474 58.7441 44.9474 58.7441L44.9066 57.7258Z" fill="#010101"/>
<path d="M42.2172 29.167C42.2172 29.4522 45.3958 31.0409 47.148 31.3669C48.9003 31.6928 52.5679 31.3669 53.1383 31.2447L53.0567 31.8152C53.0567 31.8152 48.6965 32.467 45.355 31.5708C42.0134 30.6745 42.3803 30.4707 42.3803 30.4707L42.2172 29.167Z" fill="#010101"/>
<path d="M35.4119 63.918C35.9008 64.1626 37.6532 64.6107 38.7941 64.3662C38.957 64.3254 38.7941 61.555 39.2425 60.2922C39.8945 58.5402 40.954 57.1143 41.4428 54.0183C39.7312 53.8553 37.7754 53.4071 36.7565 53.0811C35.4527 57.0737 35.901 60.4958 35.4119 63.918ZM38.1423 66.4848C38.4276 66.5662 38.6313 66.892 38.7129 66.6886C38.8758 66.3218 38.4276 65.6293 38.3868 65.1405V65.0997C38.0201 64.7739 35.5343 64.7331 35.6974 64.8959C35.4121 65.4255 34.9639 65.3441 34.8011 66.4034C34.7196 66.9328 35.3717 66.4848 35.9826 66.444C34.8825 67.1772 33.6193 68.1145 33.4154 68.9292C33.171 70.0698 33.5785 70.3959 34.8011 71.0071C35.8606 71.2515 37.1238 71.2923 38.1017 71.2515C39.2021 71.0477 39.4059 70.5183 39.0798 69.7848C38.5905 68.6847 38.2646 67.2588 38.1423 66.4848Z" fill="#F0EFEF"/>
<path d="M38.5904 13.5632C39.9353 14.3373 41.8098 14.1337 42.5025 14.0929C42.6655 14.0929 44.2956 13.8076 44.3771 13.8483C44.5399 13.8891 44.5399 14.0113 44.5399 14.0113C44.5399 14.0113 43.9287 14.3371 42.5433 14.4185C41.2393 14.4999 39.6908 14.4185 38.8351 14.0113C37.8162 13.5632 38.5904 13.5632 38.5904 13.5632ZM52.4456 14.3373C52.6901 14.5001 54.2794 15.1113 54.9722 15.8446C55.5834 16.4966 55.2575 16.4558 55.1351 16.2928C54.9722 16.089 53.7088 15.2335 53.2199 15.0299C52.7309 14.8263 52.1195 14.4595 52.1195 14.3781C52.1195 14.2967 52.4456 14.3373 52.4456 14.3373Z" fill="#010101"/>
<path d="M38.3866 31.2445C39.5684 31.1631 40.7909 31.4484 41.5652 32.263C41.9727 32.6704 42.6247 33.1185 42.5433 33.5259C42.5433 33.6481 42.2986 33.9741 42.0952 34.2186C41.9729 34.3814 41.6062 34.748 41.4838 34.8704C41.3209 34.9926 40.7503 35.4408 40.6281 35.5222C40.5059 35.6038 40.3428 35.8077 40.2206 35.8483C39.8132 36.0521 39.3649 35.8891 38.9574 35.6855C38.55 35.4816 39.039 35.4408 38.5906 35.115C37.4905 34.341 36.8791 33.8111 37.3274 32.3038C37.3681 32.0186 37.8162 31.6926 38.3866 31.2445Z" fill="#F0EFEF"/>
<path opacity="0.4" d="M27.9955 21.9149C24.3279 23.3816 14.9959 28.0262 12.3473 29.4521C14.5478 30.8372 15.5665 34.1778 15.8926 37.5592C15.9332 37.8852 15.974 38.1705 16.0149 38.4963C16.0555 38.7815 16.0963 38.9851 16.1369 39.1075C16.1369 39.1483 16.1369 39.2297 16.1777 39.2703C18.5821 32.7113 27.1802 25.7854 27.5063 25.2558C27.6692 25.0113 27.3024 23.9521 27.873 22.9338C28.6067 21.6297 30.0331 21.0593 27.9955 21.9149ZM36.716 52.6739C38.5904 48.9258 38.6312 45.3406 38.5904 41.1443C38.5904 39.3924 39.8536 36.9072 39.2018 37.5998C36.7566 40.3292 30.6035 45.4628 26.1617 45.7478C32.3965 45.5442 34.8414 48.6812 36.716 52.6739Z" fill="#010101"/>
<path d="M8.76117 32.9148C11.0839 31.2444 23.1053 24.8484 25.9986 23.9519C28.8918 23.0149 27.9953 21.9148 27.9953 21.9148C27.9953 21.9148 16.2592 26.9665 9.25012 31.3259" fill="#010101"/>
<path opacity="0.4" d="M42.9915 21.1409C42.0542 20.7743 41.3207 21.8744 41.5652 22.9336C41.8099 23.9929 44.0104 25.1742 43.8879 29.0447C43.8065 32.2225 43.1137 33.526 43.1137 33.526L41.5652 31.5706C41.5652 31.5706 41.3207 27.1705 40.791 26.5187C40.2614 25.8668 38.5905 24.6854 37.9385 24.0743C37.2865 23.4631 38.6719 22.6484 38.5905 21.5075C38.509 20.4077 39.2833 18.2077 39.2833 18.2077L42.9915 21.1409ZM48.6559 38.4961C48.5744 41.5515 49.2673 46.0738 49.5523 48.2332C49.8376 50.3923 50.2044 50.5554 49.5523 51.5332C48.9003 52.4703 48.0447 54.0184 48.0447 54.0184L45.2328 53.7738C45.2328 53.7738 47.4741 50.922 47.5961 50.3923C47.7184 49.8629 46.4552 45.8296 46.4552 45.8296L48.6559 38.4961ZM43.2361 9.97812C43.8067 11.2408 44.4993 11.8113 45.5995 12.1781C46.2515 12.4225 48.8187 12.7485 49.8376 11.6076C50.2858 11.078 50.0005 9.6521 50.0005 9.6521L47.6778 11.526L44.54 10.9558L44.1732 10.0187L43.2361 9.97812Z" fill="#010101"/>
<path d="M43.4804 12.7891C44.5399 13.4817 47.1888 14.1336 47.9222 14.2558C48.6556 14.4186 49.8374 13.4817 50.408 13.2373C51.0194 12.9521 52.0789 12.7891 53.3013 13.8891C53.4235 14.0113 53.016 14.541 53.016 14.541C52.9752 14.5002 52.7307 14.5002 52.4046 14.3372C52.0787 14.1744 51.7934 14.052 51.3045 14.0928C49.2668 14.3372 48.9409 15.0298 47.1479 14.6222C45.355 14.2146 44.9066 13.8889 43.1545 13.9703" fill="#8AC640"/>
<path d="M43.4804 12.7891C44.5399 13.4817 47.1888 14.1336 47.9222 14.2558C48.6556 14.4186 49.8374 13.4817 50.408 13.2373C51.0194 12.9521 52.0789 12.7891 53.3013 13.8891C53.4235 14.0113 53.016 14.541 53.016 14.541C52.9752 14.5002 52.7307 14.5002 52.4046 14.3372C52.0787 14.1744 51.7934 14.052 51.3045 14.0928C49.2668 14.3372 48.9409 15.0298 47.1479 14.6222C45.355 14.2146 44.9066 13.8889 43.1545 13.9703" stroke="#010101" stroke-width="10.8638" stroke-miterlimit="10" stroke-linejoin="round"/>
<path d="M43.1137 12.9114C44.4585 13.4818 47.0665 14.0929 47.8 14.2559C48.5334 14.4189 49.7152 13.6854 50.2858 13.3188C51.3047 12.667 52.6085 13.1966 53.2199 13.8892C53.6272 14.3373 53.7905 14.6225 53.7905 14.7447C53.7905 14.9075 53.3015 14.7447 53.3015 14.7447C53.0162 14.6225 52.6901 14.5819 52.4458 14.4187C52.1197 14.2559 51.7936 14.0115 51.3049 14.0521C49.2672 14.2967 48.8597 14.9891 47.1075 14.5817C45.3554 14.1743 44.907 13.8076 43.0327 13.9296" fill="#8AC640"/>
<path d="M36.7975 50.9626C36.7161 50.8812 36.8789 50.7998 36.7975 50.7998C36.2679 50.7998 35.5343 50.3924 35.1265 49.8219C33.3744 47.2962 30.807 45.6258 26.1615 45.7481C19.1931 45.9109 16.422 43.0593 15.8924 37.6001C15.6072 34.6261 14.7921 31.7335 13.1214 30.1038L12.1432 30.715C14.0176 32.3445 14.629 34.9927 15.0366 38.6186C15.6886 44.0777 20.0896 46.6037 25.2242 46.6851C30.5625 46.7665 32.4777 47.8666 34.4743 50.5556C35.1263 51.411 35.86 51.6963 36.4304 51.8185L36.7975 50.9626Z" fill="#010101"/>
<path opacity="0.4" d="M55.7057 24.7668C55.8279 25.3779 56.1538 26.5594 56.8058 27.1296C57.0913 27.4148 57.1319 27.4962 56.8874 27.4962C56.6428 27.4962 54.8498 27.4148 54.8498 27.4148L54.3608 26.5594L55.7057 24.7668Z" fill="#010101"/>
</svg>
