<svg width="47" height="47" viewBox="0 0 47 47" fill="none" xmlns="http://www.w3.org/2000/svg">
<path d="M47 0H0V47H47V0Z" fill="#F7DF1E"/>
<path d="M31.2127 37.396C32.1602 38.9424 33.3929 40.079 35.5731 40.079C37.4046 40.079 38.5746 39.164 38.5746 37.8998C38.5746 36.3848 37.3725 35.8482 35.3566 34.9669L34.2515 34.493C31.0619 33.1347 28.9429 31.4332 28.9429 27.836C28.9429 24.5225 31.4688 22 35.4163 22C38.2267 22 40.2471 22.9776 41.7031 25.5374L38.261 27.7465C37.5032 26.3882 36.6856 25.8531 35.4163 25.8531C34.1216 25.8531 33.3011 26.674 33.3011 27.7465C33.3011 29.0719 34.1224 29.6085 36.0189 30.4294L37.1239 30.9025C40.8795 32.5123 43 34.1534 43 37.8431C43 41.8208 39.8738 44 35.6754 44C31.5703 44 28.9183 42.0447 27.6206 39.4819L31.2127 37.396ZM15.5981 37.7789C16.2925 39.0103 16.9241 40.0514 18.4428 40.0514C19.895 40.0514 20.8112 39.4834 20.8112 37.2751V22.2522H25.2313V37.3348C25.2313 41.9096 22.5479 43.9918 18.631 43.9918C15.0919 43.9918 13.0423 42.1611 12 39.9562L15.5981 37.7789Z" fill="black"/>
</svg>
