<svg width="40" height="54" viewBox="0 0 40 54" fill="none" xmlns="http://www.w3.org/2000/svg">
<path d="M12.8264 41.7613C12.8264 41.7613 10.7629 42.9612 14.295 43.3673C18.5741 43.8554 20.761 43.7855 25.4766 42.8929C25.4766 42.8929 26.7165 43.6703 28.4478 44.3437C17.8768 48.8742 4.52333 44.0812 12.8264 41.7613V41.7613ZM11.5347 35.8491C11.5347 35.8491 9.22022 37.5624 12.755 37.9279C17.326 38.3995 20.9358 38.4381 27.1823 37.2353C27.1823 37.2353 28.0462 38.1112 29.4048 38.5902C16.6237 42.3276 2.38791 38.8849 11.5347 35.8491" fill="#14B8A6"/>
<path d="M22.4244 25.8206C25.0292 28.8193 21.7401 31.5179 21.7401 31.5179C21.7401 31.5179 28.3538 28.1037 25.3164 23.8282C22.4796 19.8413 20.304 17.8601 32.0813 11.0298C32.0813 11.0298 13.5949 15.6468 22.4244 25.8204" fill="#EA580C"/>
<path d="M36.4055 46.1346C36.4055 46.1346 37.9325 47.3927 34.7236 48.3662C28.6219 50.2147 9.32751 50.7729 3.96755 48.4398C2.04086 47.6018 5.65409 46.4385 6.79059 46.1943C7.97587 45.9373 8.65333 45.9853 8.65333 45.9853C6.51057 44.4757 -5.19654 48.9492 2.70675 50.2302C24.2599 53.7255 41.996 48.6564 36.4055 46.1346ZM13.8186 29.7238C13.8186 29.7238 4.00445 32.055 10.3433 32.9013C13.0197 33.2597 18.3551 33.1787 23.325 32.7622C27.3866 32.4198 31.465 31.6912 31.465 31.6912C31.465 31.6912 30.0328 32.3045 28.9967 33.012C19.0304 35.6332 -0.222766 34.4139 5.31997 31.7326C10.0075 29.4668 13.8188 29.7238 13.8188 29.7238H13.8186ZM31.4245 39.5648C41.5559 34.3002 36.8715 29.241 33.602 29.9227C32.8005 30.0894 32.4433 30.2339 32.4433 30.2339C32.4433 30.2339 32.7408 29.7679 33.309 29.5662C39.7771 27.2921 44.7517 36.2732 31.2209 39.8301C31.2209 39.8303 31.3777 39.6902 31.4245 39.5648" fill="#14B8A6"/>
<path d="M25.3165 0.000156347C25.3165 0.000156347 30.9274 5.61308 19.9948 14.2437C11.2281 21.1671 17.9957 25.1146 19.9912 29.6248C14.8739 25.0079 11.1184 20.9434 13.638 17.1607C17.3358 11.6077 27.5802 8.91548 25.3165 0" fill="#EA580C"/>
<path d="M14.8143 53.8301C24.5391 54.4527 39.4724 53.4848 39.8261 48.8833C39.8261 48.8833 39.1463 50.6278 31.7891 52.0131C23.4889 53.575 13.2517 53.3927 7.1799 52.3916C7.18006 52.3916 8.42288 53.4204 14.8144 53.8301" fill="#14B8A6"/>
</svg>
