<svg width="24" height="52" viewBox="0 0 24 52" fill="none" xmlns="http://www.w3.org/2000/svg">
<path d="M11.58 0.141846L12.9754 2.74816C13.2891 3.22912 13.629 3.65484 14.0293 4.05131C15.203 5.20389 16.2969 6.43402 17.3038 7.7333C19.6681 10.8206 21.2629 14.2491 22.4017 17.9571C23.0847 20.2221 23.4556 22.5457 23.4834 24.8953C23.5978 31.9197 21.1763 37.9512 16.294 42.964C15.4998 43.7589 14.6419 44.4882 13.7287 45.1446C13.245 45.1446 13.0162 44.7757 12.8169 44.4361C12.4539 43.8064 12.2123 43.1148 12.1045 42.3969C11.9329 41.5471 11.8202 40.6973 11.8757 39.8199V39.4234C11.8365 39.3389 11.4101 0.341706 11.58 0.141846V0.141846Z" fill="#599636"/>
<path d="M11.58 0.0559009C11.5228 -0.057841 11.4656 0.0282779 11.4085 0.0835239C11.4362 0.652233 11.2369 1.1592 10.9248 1.64341C10.5817 2.12438 10.1274 2.49323 9.67155 2.8897C7.13891 5.07029 5.14547 7.70423 3.54909 10.6501C1.42494 14.6149 0.330186 18.8639 0.0197329 23.3372C-0.122422 24.9508 0.532797 30.6443 1.04423 32.2871C2.43963 36.6483 4.94613 40.3027 8.19281 43.4744C8.99019 44.2381 9.84312 44.9466 10.7255 45.6274C10.982 45.6274 11.0098 45.3999 11.0686 45.2309C11.1811 44.8693 11.2668 44.5 11.3251 44.126L11.897 39.8786L11.58 0.0559009Z" fill="#6CAC48"/>
<path d="M12.9754 46.8704C13.0326 46.2204 13.3463 45.681 13.6878 45.1431C13.3447 45.0018 13.0898 44.7207 12.8905 44.4071C12.7186 44.1102 12.5763 43.7972 12.4656 43.4728C12.0669 42.2834 11.982 41.0355 11.8676 39.8201V39.084C11.7255 39.1977 11.696 40.1597 11.696 40.3026C11.6129 41.5872 11.4415 42.8647 11.183 44.126C11.098 44.6362 11.0408 45.1448 10.7255 45.5981C10.7255 45.655 10.7255 45.7119 10.7532 45.7963C11.2663 47.2977 11.4068 48.8267 11.4934 50.385V50.9537C11.4934 51.6329 11.4657 51.4899 12.0326 51.7174C12.2614 51.8019 12.5163 51.8311 12.745 52.0001C12.9166 52.0001 12.9444 51.8588 12.9444 51.745L12.8594 50.8107V48.2044C12.8316 47.7494 12.9166 47.2977 12.9738 46.872L12.9754 46.8704Z" fill="#C2BFBF"/>
</svg>
