<svg width="47" height="52" viewBox="0 0 47 52" fill="none" xmlns="http://www.w3.org/2000/svg">
<path d="M21.2952 0.550384C22.5744 -0.181807 24.2405 -0.185114 25.5186 0.550384C31.9485 4.18359 38.3803 7.8111 44.8091 11.4465C46.0183 12.1276 46.8271 13.4733 46.8148 14.8666V36.7254C46.8238 38.1763 45.935 39.5542 44.6594 40.2198C38.2506 43.833 31.8452 47.4506 25.4376 51.0638C24.1319 51.8103 22.4324 51.7528 21.1675 50.9451C19.2462 49.8313 17.3216 48.723 15.4 47.6103C15.0074 47.3762 14.5648 47.1899 14.2875 46.8092C14.5326 46.4788 14.9708 46.4377 15.3269 46.2934C16.1289 46.0384 16.8655 45.6291 17.6023 45.2318C17.7886 45.1043 18.0161 45.1532 18.1947 45.2673C19.8376 46.2093 21.4661 47.1787 23.1146 48.1117C23.4663 48.3147 23.8223 48.0452 24.1229 47.8776C30.4119 44.3232 36.7085 40.7823 42.9964 37.2268C43.2293 37.1147 43.3581 36.8674 43.3392 36.6122C43.3436 29.4014 43.3403 22.1894 43.3414 14.9787C43.3681 14.6891 43.2005 14.4229 42.9387 14.3044C36.5522 10.7077 30.169 7.10555 23.7836 3.50799C23.6729 3.43193 23.5419 3.39113 23.4076 3.39093C23.2734 3.39073 23.1422 3.43116 23.0314 3.50689C16.646 7.10555 10.2639 10.711 3.87847 14.3075C3.61756 14.4262 3.44246 14.688 3.47351 14.9787C3.47462 22.1894 3.47351 29.4014 3.47351 36.6133C3.46244 36.7378 3.48979 36.8627 3.55188 36.9712C3.61397 37.0797 3.70781 37.1666 3.82078 37.2202C5.52475 38.1864 7.23093 39.1459 8.936 40.1089C9.89658 40.6259 11.076 40.9331 12.1343 40.537C13.0682 40.202 13.7229 39.249 13.7051 38.2574C13.7139 31.0887 13.7007 23.9189 13.7117 16.7514C13.6883 16.4331 13.9902 16.1702 14.2996 16.2001C15.1184 16.1946 15.9382 16.1891 16.7569 16.2024C17.0987 16.1946 17.3339 16.5373 17.2916 16.8579C17.2883 24.072 17.3004 31.2862 17.2861 38.5003C17.2883 40.4229 16.4984 42.5149 14.72 43.4556C12.5292 44.5906 9.82125 44.3499 7.65683 43.2616C5.78308 42.3264 3.99496 41.2227 2.15447 40.2208C0.875479 39.5588 -0.00884495 38.1754 0.000158142 36.7255V14.8666C-0.0132546 13.4445 0.827708 12.0743 2.07454 11.4032C8.48217 7.78703 14.8887 4.16816 21.2952 0.550384Z" fill="#8CC84B"/>
<path d="M26.8852 15.6919C29.6798 15.512 32.6716 15.5853 35.1864 16.962C37.1335 18.017 38.2129 20.2313 38.2473 22.3944C38.1929 22.6862 37.8879 22.8471 37.6094 22.8271C36.7985 22.826 35.9875 22.8381 35.1767 22.8216C34.8327 22.8348 34.6328 22.5177 34.5896 22.2136C34.3567 21.1786 33.7922 20.1535 32.8181 19.6543C31.3226 18.9056 29.5887 18.9433 27.958 18.9589C26.7676 19.0221 25.4875 19.1252 24.479 19.8252C23.7047 20.3555 23.4695 21.4259 23.7459 22.288C24.0064 22.907 24.721 23.1067 25.3056 23.2908C28.6735 24.1717 32.2424 24.084 35.546 25.2432C36.9137 25.7158 38.2517 26.6345 38.7199 28.0665C39.3323 29.9858 39.0638 32.28 37.6983 33.8208C36.5909 35.0887 34.9781 35.7789 33.3695 36.1537C31.2295 36.6308 29.0086 36.643 26.8354 36.4311C24.7919 36.1981 22.6653 35.6613 21.0878 34.2689C19.7388 33.0976 19.0799 31.2725 19.1453 29.5111C19.1609 29.2136 19.4571 29.0061 19.7421 29.0306C20.5586 29.024 21.3751 29.0218 22.1917 29.0317C22.5178 29.0083 22.7596 29.2902 22.7763 29.5976C22.927 30.5837 23.2976 31.6187 24.1575 32.2033C25.817 33.274 27.8992 33.2007 29.7995 33.2306C31.3737 33.1608 33.1409 33.1397 34.4256 32.0992C35.1034 31.5057 35.3042 30.5128 35.121 29.6586C34.9226 28.9374 34.1682 28.6014 33.5203 28.3816C30.1956 27.3299 26.5868 27.7115 23.2943 26.5222C21.9576 26.0498 20.665 25.1567 20.1514 23.7834C19.4349 21.8399 19.7632 19.4359 21.2719 17.947C22.7429 16.4661 24.8663 15.8958 26.8852 15.6917V15.6919Z" fill="#8CC84B"/>
</svg>
