<svg width="64" height="64" viewBox="0 0 64 64" fill="none" xmlns="http://www.w3.org/2000/svg">
<g clip-path="url(#clip0_342_49)">
<path d="M47.4575 46.5899C47.865 43.1974 47.7425 42.7024 50.2675 43.2499L50.91 43.3074C52.8525 43.3949 55.3925 42.9949 56.91 42.3024C60.1225 40.8124 62.0275 38.3224 58.86 38.9774C51.635 40.4674 51.11 38.0199 51.11 38.0199C58.7425 26.6949 61.935 12.3199 59.1775 8.80235C51.6675 -0.797645 38.665 3.74236 38.4475 3.86236L38.3775 3.87486C36.9525 3.57486 35.3775 3.39986 33.5525 3.37486C30.2825 3.32486 27.8025 4.23236 25.9175 5.65986C25.9175 5.65986 2.72503 -3.89514 3.80253 17.6774C4.03253 22.2674 10.3775 52.4274 17.9525 43.3024C20.725 39.9674 23.4 37.1499 23.4 37.1499C24.725 38.0324 26.3175 38.4824 27.985 38.3199L28.115 38.2099C28.0766 38.642 28.0942 39.0773 28.1675 39.5049C26.2175 41.6849 26.7925 42.0674 22.8925 42.8699C18.9475 43.6824 21.2675 45.1299 22.7775 45.5099C24.6125 45.9699 28.8575 46.6199 31.7275 42.6049L31.6125 43.0624C32.3775 43.6749 32.325 47.4624 32.4375 50.1674C32.55 52.8724 32.7275 55.3999 33.28 56.8874C33.8325 58.3749 34.48 62.2124 39.605 61.1374C43.8875 60.2199 47.1625 58.8974 47.4625 46.6124" fill="black"/>
<path d="M47.4575 46.5899C47.865 43.1974 47.7425 42.7024 50.2675 43.2499L50.91 43.3074C52.8525 43.3949 55.3925 42.9949 56.91 42.3024C60.1225 40.8124 62.0275 38.3224 58.86 38.9774C51.635 40.4674 51.11 38.0199 51.11 38.0199C58.7425 26.6949 61.935 12.3199 59.1775 8.80235C51.6675 -0.797645 38.665 3.74236 38.4475 3.86236L38.3775 3.87486C36.9525 3.57486 35.3775 3.39986 33.5525 3.37486C30.2825 3.32486 27.8025 4.23236 25.9175 5.65986C25.9175 5.65986 2.72503 -3.89514 3.80253 17.6774C4.03253 22.2674 10.3775 52.4274 17.9525 43.3024C20.725 39.9674 23.4 37.1499 23.4 37.1499C24.725 38.0324 26.3175 38.4824 27.985 38.3199L28.115 38.2099C28.0766 38.642 28.0942 39.0773 28.1675 39.5049C26.2175 41.6849 26.7925 42.0674 22.8925 42.8699C18.9475 43.6824 21.2675 45.1299 22.7775 45.5099C24.6125 45.9699 28.8575 46.6199 31.7275 42.6049L31.6125 43.0624C32.3775 43.6749 32.325 47.4624 32.4375 50.1674C32.55 52.8724 32.7275 55.3999 33.28 56.8874C33.8325 58.3749 34.48 62.2124 39.605 61.1374C43.8875 60.2199 47.1625 58.8974 47.4625 46.6124" stroke="black" stroke-width="5.3725"/>
<path d="M58.8375 38.9998C51.6125 40.4898 51.0875 38.0423 51.0875 38.0423C58.72 26.7173 61.9125 12.3423 59.1575 8.82484C51.6475 -0.775164 38.645 3.76734 38.4275 3.88484L38.3575 3.89734C36.7694 3.57868 35.1547 3.41043 33.535 3.39484C30.265 3.34484 27.785 4.25234 25.9 5.67984C25.9 5.67984 2.70499 -3.87516 3.78499 17.6973C4.01499 22.2873 10.36 52.4473 17.935 43.3223C20.725 39.9673 23.4 37.1498 23.4 37.1498C24.725 38.0323 26.3175 38.4823 27.985 38.3198L28.115 38.2098C28.0768 38.642 28.0944 39.0772 28.1675 39.5048C26.2175 41.6848 26.7925 42.0673 22.8925 42.8698C18.9475 43.6823 21.2675 45.1298 22.7775 45.5098C24.6125 45.9698 28.8575 46.6198 31.7275 42.6048L31.6125 43.0623C32.3775 43.6748 32.9125 47.0448 32.8225 50.0998C32.7325 53.1548 32.6725 55.2498 33.2725 56.8898C33.8725 58.5298 34.4725 62.2148 39.5975 61.1398C43.88 60.2223 46.0975 57.8398 46.41 53.8748C46.63 51.0548 47.125 51.4698 47.16 48.9498L47.56 47.7548C48.0175 43.9298 47.635 42.6973 50.2725 43.2723L50.915 43.3298C52.8575 43.4173 55.4 43.0173 56.89 42.3248C60.1025 40.8348 62.005 38.3448 58.8375 38.9998Z" fill="#336791"/>
<path d="M32.035 41.1674C31.835 48.2824 32.085 55.4474 32.78 57.1674C33.475 58.8874 34.9675 62.2924 40.095 61.1974C44.3775 60.2799 45.9375 58.5024 46.6125 54.5799L48.195 42.0374M25.89 5.49991C25.89 5.49991 2.68 -3.99009 3.76 17.5824C3.99 22.1724 10.335 52.3324 17.91 43.2074C20.675 39.8749 23.175 37.2674 23.175 37.2674M38.425 3.76741C37.625 4.01741 51.335 -1.24509 59.13 8.71241C61.88 12.2299 58.6925 26.6049 51.06 37.9299" stroke="white" stroke-width="1.79" stroke-linecap="round" stroke-linejoin="round"/>
<path d="M51.0625 37.9249C51.0625 37.9249 51.5625 40.3749 58.8125 38.8799C61.98 38.2249 60.0725 40.7149 56.8625 42.2049C54.2275 43.4299 48.3175 43.7424 48.22 42.0549C47.97 37.6924 51.33 39.0174 51.0875 37.9249C50.8675 36.9399 49.3625 35.9749 48.3725 33.5649C47.505 31.4649 36.4725 15.3399 51.4325 17.7324C51.9825 17.6199 47.5325 3.48243 33.5325 3.27743C19.5325 3.07243 19.975 20.4899 19.975 20.4899" stroke="white" stroke-width="1.79" stroke-linecap="round" stroke-linejoin="bevel"/>
<path d="M28.1175 39.4199C26.1675 41.5999 26.7425 41.9824 22.8425 42.7849C18.8975 43.5974 21.2175 45.0449 22.7275 45.4249C24.5625 45.8849 28.8075 46.5349 31.6775 42.5174C32.5525 41.2924 31.6725 39.3424 30.4725 38.8474C29.8925 38.6074 29.1175 38.3074 28.1225 39.4224L28.1175 39.4199Z" stroke="white" stroke-width="1.79" stroke-linejoin="round"/>
<path d="M27.99 39.3825C27.79 38.1 28.41 36.5775 29.0725 34.7925C30.0675 32.1175 32.3625 29.4425 30.5275 20.95C29.16 14.625 19.9775 19.6325 19.9775 20.49C19.9775 21.3475 20.3925 24.84 19.8275 28.9025C19.085 34.2075 23.2025 38.6925 27.9425 38.235" stroke="white" stroke-width="1.79" stroke-linecap="round" stroke-linejoin="round"/>
<path d="M25.8051 20.3624C25.7626 20.6549 26.3426 21.4374 27.0951 21.5424C27.8476 21.6474 28.4901 21.0374 28.5326 20.7424C28.5751 20.4474 27.9951 20.1274 27.2426 20.0224C26.4901 19.9174 25.8426 20.0724 25.8051 20.3624Z" fill="white" stroke="white" stroke-width="0.5975"/>
<path d="M48.7151 19.765C48.7551 20.0575 48.1776 20.84 47.4251 20.945C46.6726 21.05 46.0251 20.44 45.9876 20.145C45.9501 19.85 46.5251 19.53 47.2776 19.425C48.0301 19.32 48.6776 19.475 48.7151 19.765Z" fill="white" stroke="white" stroke-width="0.2975"/>
<path d="M51.405 17.7373C51.53 20.0373 50.91 21.5998 50.83 24.0473C50.715 27.6023 52.525 31.6723 49.7975 35.7473" stroke="white" stroke-width="1.79" stroke-linecap="round" stroke-linejoin="round"/>
</g>
<defs>
<clipPath id="clip0_342_49">
<rect width="64" height="64" fill="white"/>
</clipPath>
</defs>
</svg>
