<svg width="49" height="48" viewBox="0 0 49 48" fill="none" xmlns="http://www.w3.org/2000/svg">
<path d="M43.2355 9.331C40.3178 5.57386 36.3453 2.76153 31.8203 1.24969C27.2953 -0.26215 22.4211 -0.405583 17.8141 0.837529C13.2071 2.08064 9.0743 4.65446 5.93835 8.23347C2.80241 11.8125 0.804198 16.2359 0.196428 20.9443C-0.411342 25.6527 0.398634 30.4346 2.52392 34.6852C4.6492 38.9359 7.99432 42.4642 12.1362 44.8242C16.2781 47.1841 21.0307 48.2695 25.793 47.9432C30.5553 47.6169 35.1133 45.8935 38.8906 42.991C49.4342 34.888 51.38 19.8197 43.2347 9.331H43.2355Z" fill="#FF6C37"/>
<path d="M32.2739 15.2918L22.0977 25.4918L19.222 22.5518C29.2376 12.5918 30.2429 13.4918 32.2747 15.2918H32.2739Z" fill="white"/>
<path d="M22.0978 25.771C22.0077 25.7688 21.9217 25.7332 21.8565 25.6712L18.9604 22.7912C18.8952 22.7241 18.8588 22.6344 18.8588 22.5411C18.8588 22.4478 18.8952 22.3581 18.9604 22.291C28.835 12.4713 30.1828 12.931 32.5155 15.031C32.5545 15.0621 32.5858 15.1018 32.6067 15.147C32.6276 15.1921 32.6377 15.2415 32.6361 15.2912C32.6512 15.3887 32.6135 15.4885 32.5358 15.5515L22.3595 25.672C22.2882 25.737 22.1946 25.7727 22.0978 25.7717V25.771ZM19.7244 22.5512L22.0978 24.9115L31.7515 15.3115C31.4182 14.8961 30.9425 14.6175 30.4156 14.5289C29.8887 14.4404 29.3474 14.5481 28.8954 14.8315C27.1456 15.6115 24.3302 17.9912 19.7244 22.5512Z" fill="#FF6C37"/>
<path d="M25.0141 28.3119L22.2387 25.4919L32.415 15.4915C35.1505 18.1517 31.0877 22.5917 25.0141 28.3111V28.3119Z" fill="white"/>
<path d="M25.0143 28.6719C24.9252 28.6649 24.8407 28.63 24.7729 28.5722L21.9372 25.8122C21.8946 25.7096 21.8946 25.5945 21.9372 25.4919C21.907 25.4078 21.907 25.3158 21.9372 25.2317L32.1135 15.112C32.1842 15.0458 32.2777 15.009 32.3748 15.009C32.4719 15.009 32.5653 15.0458 32.6361 15.112C32.9657 15.4136 33.226 15.7823 33.3995 16.1929C33.573 16.6036 33.6555 17.0465 33.6414 17.4917C33.6414 20.1917 30.544 23.5914 25.2752 28.5519C25.2048 28.6212 25.1122 28.6637 25.0135 28.6719H25.0143ZM22.7615 25.4919L25.0339 27.7509C29.056 23.9709 32.8978 20.071 32.9174 17.431C32.9393 16.8713 32.7533 16.3232 32.3948 15.8912L22.7615 25.4919Z" fill="#FF6C37"/>
<path d="M19.302 22.612L21.3134 24.6123C21.3263 24.6235 21.3366 24.6374 21.3436 24.6529C21.3506 24.6684 21.3543 24.6852 21.3543 24.7023C21.3543 24.7193 21.3506 24.7361 21.3436 24.7516C21.3366 24.7671 21.3263 24.781 21.3134 24.7923L17.0696 25.6923C16.9839 25.7106 16.8946 25.7007 16.8151 25.6639C16.7357 25.6271 16.6705 25.5655 16.6295 25.4885C16.5885 25.4115 16.574 25.3232 16.5881 25.2372C16.6022 25.1512 16.6441 25.0721 16.7076 25.012L19.1813 22.5723C19.1813 22.5723 19.262 22.5723 19.302 22.612Z" fill="white"/>
<path d="M16.9693 26.0921C16.8352 26.0904 16.7038 26.0546 16.5876 25.988C16.4714 25.9214 16.3743 25.8264 16.3056 25.7118C16.2282 25.5668 16.2002 25.4008 16.2256 25.2385C16.251 25.0763 16.3286 24.9266 16.4466 24.8119L18.9 22.3519C18.9885 22.2732 19.103 22.2297 19.2216 22.2297C19.3403 22.2297 19.4548 22.2732 19.5433 22.3519L21.5547 24.3521C21.6739 24.4646 21.7206 24.6349 21.6754 24.7924C21.6301 24.9499 21.4974 25.0751 21.3337 25.1126L17.0899 26.0126L16.9693 26.0921ZM19.222 23.0524L16.9497 25.3121L20.7108 24.5119L19.222 23.0524Z" fill="#FF6C37"/>
<path d="M37.6846 9.67153C36.229 8.27503 33.9423 8.21653 32.4158 9.53428C30.8893 10.852 30.6283 13.114 31.8169 14.7415C33.0056 16.369 35.2463 16.825 36.981 15.7915L34.2455 13.0713L37.6846 9.67153Z" fill="white"/>
<path d="M34.9696 16.7108C34.1333 16.7001 33.3187 16.445 32.6272 15.9771C31.9357 15.5093 31.398 14.8494 31.081 14.0798C30.7642 13.3107 30.6811 12.4662 30.8419 11.6506C31.0028 10.8351 31.4006 10.0844 31.986 9.49128C32.7912 8.70526 33.8745 8.26489 35.0028 8.26489C36.1311 8.26489 37.2144 8.70526 38.0196 9.49128C38.0965 9.55578 38.1402 9.65103 38.1402 9.75153C38.1401 9.80098 38.1292 9.84981 38.1084 9.89471C38.0875 9.93961 38.0573 9.97954 38.0196 10.0118L34.7614 13.0718L37.2352 15.492C37.2753 15.5301 37.3054 15.5773 37.3229 15.6296C37.3404 15.6819 37.3447 15.7377 37.3355 15.792C37.3296 15.8445 37.3121 15.895 37.2843 15.9399C37.2566 15.9849 37.2192 16.0233 37.1749 16.0523C36.5103 16.4654 35.7463 16.6933 34.9628 16.7123L34.9696 16.7108ZM34.9696 8.95053C33.5366 8.95803 32.2545 9.81528 31.7168 11.1255C31.179 12.4358 31.4716 13.944 32.4762 14.9505C32.9759 15.4503 33.6157 15.7884 34.3119 15.9205C35.008 16.0526 35.7281 15.9725 36.3777 15.6908L34.0042 13.3305C33.9665 13.3005 33.936 13.2625 33.9151 13.2192C33.8942 13.1759 33.8833 13.1285 33.8833 13.0804C33.8833 13.0324 33.8942 12.9849 33.9151 12.9416C33.936 12.8983 33.9665 12.8603 34.0042 12.8303L37.1417 9.69003C36.518 9.21471 35.7554 8.9548 34.9696 8.94978V8.95053Z" fill="#FF6C37"/>
<path d="M37.7449 9.73145L34.3058 13.1312L37.0413 15.8514C37.3166 15.6942 37.5729 15.5063 37.8052 15.2912C38.5222 14.5376 38.9166 13.5365 38.9054 12.4992C38.8941 11.4619 38.478 10.4695 37.7449 9.73145Z" fill="white"/>
<path d="M36.9802 16.1518C36.935 16.1543 36.8899 16.1466 36.8481 16.1293C36.8063 16.112 36.769 16.0856 36.7389 16.0521L34.0034 13.3318C33.9657 13.3018 33.9352 13.2638 33.9143 13.2205C33.8934 13.1772 33.8825 13.1297 33.8825 13.0817C33.8825 13.0337 33.8934 12.9862 33.9143 12.9429C33.9352 12.8996 33.9657 12.8616 34.0034 12.8316L37.4222 9.49181C37.4552 9.44231 37.5 9.4017 37.5527 9.3736C37.6053 9.34551 37.6641 9.33081 37.7239 9.33081C37.7836 9.33081 37.8424 9.34551 37.895 9.3736C37.9477 9.4017 37.9925 9.44231 38.0255 9.49181C38.4269 9.88287 38.7457 10.3496 38.9634 10.8648C39.1811 11.3799 39.2932 11.9331 39.2932 12.4918C39.2932 13.0506 39.1811 13.6037 38.9634 14.1189C38.7457 14.634 38.4269 15.1008 38.0255 15.4918C37.7888 15.7415 37.5179 15.9569 37.2208 16.1316C37.146 16.1691 37.0595 16.1763 36.9795 16.1518H36.9802ZM34.7682 13.0723L37.0406 15.3321C37.1969 15.2231 37.3448 15.1028 37.4833 14.9721C38.1513 14.3096 38.5275 13.4105 38.5293 12.4723C38.5309 11.6327 38.2231 10.8216 37.6643 10.1923L34.7682 13.0723Z" fill="#FF6C37"/>
<path d="M32.6964 15.7121C32.424 15.4578 32.0644 15.3162 31.6907 15.3162C31.317 15.3162 30.9574 15.4578 30.685 15.7121L21.5751 24.7512L23.0835 26.2714L32.7168 17.8714C32.8637 17.7314 32.9802 17.5629 33.0592 17.3764C33.1382 17.19 33.178 16.9894 33.1761 16.787C33.1741 16.5847 33.1306 16.3849 33.0481 16.1999C32.9656 16.0149 32.846 15.8486 32.6964 15.7114V15.7121Z" fill="white"/>
<path d="M23.0028 26.6322C22.9127 26.6299 22.8266 26.5944 22.7615 26.5324L21.2328 25.0122C21.1675 24.945 21.1311 24.8554 21.1311 24.762C21.1311 24.6687 21.1675 24.579 21.2328 24.5119L30.3434 15.4917C30.6058 15.231 30.9409 15.0548 31.3052 14.9858C31.6696 14.9169 32.0463 14.9584 32.3867 15.1049C32.727 15.2515 33.0153 15.4963 33.214 15.8077C33.4127 16.1192 33.5127 16.4828 33.5011 16.8514C33.4907 17.1016 33.4302 17.3473 33.3231 17.5739C33.216 17.8006 33.0645 18.0037 32.8774 18.1714L23.2442 26.5714C23.1741 26.6207 23.088 26.6421 23.0028 26.6314V26.6322ZM21.9372 24.7512L22.9425 25.7712L32.3948 17.5909C32.6286 17.3884 32.7681 17.0989 32.7771 16.7907C32.7862 16.4824 32.664 16.1809 32.4355 15.9709C32.2245 15.7619 31.9388 15.6446 31.6409 15.6446C31.3431 15.6446 31.0574 15.7619 30.8464 15.9709L21.9372 24.7512Z" fill="#FF6C37"/>
<path d="M14.5159 35.0515C14.4902 35.0863 14.4763 35.1283 14.4763 35.1715C14.4763 35.2147 14.4902 35.2567 14.5159 35.2915L14.9179 37.0315C14.934 37.1339 14.9187 37.2387 14.8741 37.3324C14.8294 37.426 14.7574 37.5041 14.6675 37.5565C14.5779 37.6086 14.474 37.6311 14.3707 37.6207C14.2674 37.6103 14.1701 37.5676 14.0928 37.4987L11.3378 34.8587L19.9257 26.251H22.9025L24.9139 28.2512C21.7762 30.9793 18.2778 33.2673 14.5159 35.0515Z" fill="white"/>
<path d="M14.3349 37.9917C14.1072 37.9872 13.8824 37.8942 13.7316 37.7314L11.0972 35.1117C11.0595 35.0817 11.029 35.0436 11.0081 35.0003C10.9871 34.957 10.9763 34.9096 10.9763 34.8615C10.9763 34.8135 10.9871 34.7661 11.0081 34.7228C11.029 34.6795 11.0595 34.6414 11.0972 34.6114L19.7447 25.9917C19.7931 25.9405 19.8564 25.9056 19.9257 25.8919H22.9221C23.0002 25.8645 23.0854 25.8645 23.1635 25.8919L25.1749 27.8922C25.2131 27.9272 25.2422 27.971 25.2597 28.0198C25.2772 28.0685 25.2825 28.1207 25.2752 28.1719C25.2766 28.2216 25.2665 28.271 25.2455 28.3161C25.2246 28.3613 25.1934 28.401 25.1545 28.4322L24.9939 28.5724C21.8436 31.1842 18.3777 33.3945 14.6766 35.1522L15.0589 36.7722C15.0885 36.8971 15.0896 37.0271 15.0623 37.1526C15.0349 37.278 14.9797 37.3958 14.9007 37.4974C14.8217 37.5989 14.7209 37.6816 14.6057 37.7395C14.4904 37.7974 14.3637 37.829 14.2346 37.8319L14.3349 37.9917ZM11.8815 34.8514L14.2542 37.2312C14.2763 37.2508 14.3049 37.2616 14.3345 37.2616C14.3642 37.2616 14.3928 37.2508 14.4149 37.2312C14.4297 37.2107 14.4376 37.1862 14.4376 37.161C14.4376 37.1359 14.4297 37.1113 14.4149 37.0909L14.0129 35.3509C13.9812 35.226 13.9939 35.0941 14.0489 34.9775C14.1039 34.8609 14.1978 34.7668 14.3146 34.7112C17.9161 32.977 21.2927 30.8144 24.3702 28.2709L22.7207 26.6307H20.026L11.8815 34.8514Z" fill="#FF6C37"/>
<path d="M9.26671 36.9114L11.2781 34.9111L14.3756 37.9914L9.44847 37.6516C9.36388 37.645 9.28354 37.612 9.21892 37.5573C9.1543 37.5026 9.1087 37.4291 9.08864 37.3471C9.06857 37.2651 9.07505 37.1789 9.10717 37.1008C9.13928 37.0227 9.19538 36.9566 9.26747 36.9121L9.26671 36.9114Z" fill="white"/>
<path d="M14.4352 38.2917L9.52775 37.9519C9.23664 37.9249 8.98625 37.7269 8.88368 37.4622C8.78111 37.1974 8.8437 36.8832 9.04507 36.6717L11.0565 34.6714C11.124 34.6066 11.2142 34.5703 11.308 34.5703C11.4019 34.5703 11.492 34.6066 11.5595 34.6714L14.6366 37.7314C14.6792 37.7894 14.7022 37.8594 14.7022 37.9313C14.7022 38.0031 14.6792 38.0731 14.6366 38.1312C14.5901 38.206 14.5189 38.2624 14.4352 38.2909V38.2917ZM9.52775 37.1719L13.5498 37.4322L11.3378 35.3719L9.52775 37.1719Z" fill="#FF6C37"/>
<path d="M23.1838 26.4925L19.121 27.1127L21.4741 24.793L23.1838 26.4925Z" fill="white"/>
<path d="M19.121 27.4917C19.0535 27.4935 18.9869 27.4754 18.9296 27.4398C18.8724 27.4042 18.8269 27.3526 18.7989 27.2915C18.7561 27.2335 18.733 27.1635 18.733 27.0916C18.733 27.0197 18.7561 26.9496 18.7989 26.8917L21.1316 24.5517C21.2024 24.4855 21.2958 24.4487 21.393 24.4487C21.4901 24.4487 21.5835 24.4855 21.6543 24.5517L23.3648 26.2512C23.3989 26.3051 23.4171 26.3675 23.4171 26.4312C23.4171 26.4949 23.3989 26.5573 23.3648 26.6112C23.348 26.6769 23.3125 26.7364 23.2626 26.7825C23.2127 26.8287 23.1505 26.8595 23.0834 26.8714L19.0614 27.4917H19.121ZM21.474 25.3114L20.167 26.6112L22.4198 26.2714L21.474 25.3114Z" fill="#FF6C37"/>
<path d="M23.1838 26.491L20.3481 26.851C20.2722 26.8682 20.1928 26.8605 20.1216 26.8292C20.0504 26.798 19.9913 26.7447 19.9529 26.6774C19.9146 26.61 19.8991 26.5322 19.9087 26.4554C19.9184 26.3786 19.9526 26.3069 20.0064 26.251L21.4748 24.7908L23.1838 26.491Z" fill="white"/>
<path d="M20.2674 27.232C20.136 27.2307 20.0072 27.1949 19.8942 27.1281C19.7812 27.0613 19.688 26.966 19.6241 26.8517C19.5473 26.7148 19.5175 26.5568 19.5393 26.4015C19.5611 26.2462 19.6332 26.1023 19.7448 25.9915L21.2132 24.5312C21.2839 24.4651 21.3774 24.4283 21.4745 24.4283C21.5716 24.4283 21.6651 24.4651 21.7358 24.5312L23.4456 26.2315C23.4964 26.2794 23.5322 26.341 23.5486 26.4087C23.5649 26.4764 23.5612 26.5474 23.5378 26.613C23.5144 26.6787 23.4724 26.7362 23.4168 26.7786C23.3612 26.8209 23.2944 26.8464 23.2246 26.8517L20.4092 27.2117L20.2674 27.232ZM20.2674 26.4917L22.3995 26.2315L21.4545 25.2917L20.2478 26.4917H20.2674ZM37.7646 12.0317C37.7267 11.9686 37.6669 11.9215 37.5964 11.8994C37.5259 11.8773 37.4497 11.8817 37.3822 11.9117C37.3489 11.9285 37.3194 11.9517 37.2953 11.9801C37.2712 12.0084 37.2531 12.0413 37.242 12.0767C37.2196 12.1482 37.2266 12.2256 37.2616 12.292C37.4026 12.5867 37.3634 12.9355 37.1613 13.192C37.1361 13.2167 37.1165 13.2463 37.1035 13.279C37.0905 13.3116 37.0845 13.3466 37.0858 13.3817C37.0866 13.4521 37.1134 13.5196 37.1613 13.5715C37.2129 13.5917 37.2703 13.5917 37.3219 13.5715C37.3687 13.5832 37.4179 13.5819 37.464 13.5677C37.5102 13.5536 37.5515 13.5271 37.5836 13.4912C37.7492 13.2896 37.8541 13.0455 37.8861 12.7871C37.9181 12.5287 37.876 12.2666 37.7646 12.031V12.0317Z" fill="#FF6C37"/>
</svg>
