<svg width="48" height="47" viewBox="0 0 48 47" fill="none" xmlns="http://www.w3.org/2000/svg">
<path d="M23.4526 0C11.4587 0 12.2076 5.20129 12.2076 5.20129L12.2209 10.59H23.6665V12.2078H7.67491C7.67491 12.2078 0 11.3374 0 23.4392C0 35.5413 6.69885 35.1121 6.69885 35.1121H10.6967V29.4963C10.6967 29.4963 10.4812 22.7974 17.2886 22.7974H28.6406C28.6406 22.7974 35.0185 22.9005 35.0185 16.6334V6.27114C35.0185 6.27114 35.9871 0 23.4526 0ZM17.1416 3.62379C17.412 3.62354 17.6799 3.67664 17.9298 3.78003C18.1797 3.88342 18.4068 4.03508 18.5981 4.22633C18.7893 4.41758 18.941 4.64466 19.0444 4.89459C19.1478 5.14451 19.2008 5.41237 19.2006 5.68284C19.2008 5.95331 19.1478 6.22117 19.0444 6.4711C18.941 6.72102 18.7893 6.94811 18.5981 7.13936C18.4068 7.3306 18.1797 7.48226 17.9298 7.58565C17.6799 7.68905 17.412 7.74214 17.1416 7.74189C16.8711 7.74214 16.6032 7.68905 16.3533 7.58565C16.1034 7.48226 15.8763 7.3306 15.685 7.13936C15.4938 6.94811 15.3421 6.72102 15.2387 6.4711C15.1354 6.22117 15.0823 5.95331 15.0825 5.68284C15.0823 5.41237 15.1354 5.14451 15.2387 4.89459C15.3421 4.64466 15.4938 4.41758 15.685 4.22633C15.8763 4.03508 16.1034 3.88342 16.3533 3.78003C16.6032 3.67664 16.8711 3.62354 17.1416 3.62379V3.62379Z" fill="#0891B2"/>
<path d="M23.7933 47.0001C35.7872 47.0001 35.0383 41.7988 35.0383 41.7988L35.025 36.4103H23.5792V34.7924H39.5708C39.5708 34.7924 47.2457 35.6629 47.2457 23.5607C47.2457 11.4587 40.5469 11.8879 40.5469 11.8879H36.549V17.5036C36.549 17.5036 36.7646 24.2024 29.9571 24.2024H18.6051C18.6051 24.2024 12.2273 24.0994 12.2273 30.3667V40.7291C12.2273 40.7291 11.2588 47.0001 23.7931 47.0001H23.7933ZM30.1044 43.3766C29.8339 43.3769 29.566 43.3238 29.3161 43.2204C29.0662 43.117 28.8391 42.9654 28.6479 42.7741C28.4566 42.5829 28.3049 42.3558 28.2016 42.1058C28.0982 41.8559 28.0451 41.5881 28.0453 41.3176C28.0451 41.0471 28.0981 40.7792 28.2015 40.5293C28.3049 40.2793 28.4565 40.0522 28.6478 39.861C28.839 39.6697 29.0661 39.518 29.3161 39.4146C29.566 39.3112 29.8339 39.2581 30.1044 39.2583C30.3748 39.2581 30.6427 39.3112 30.8926 39.4146C31.1425 39.518 31.3696 39.6696 31.5609 39.8609C31.7521 40.0521 31.9038 40.2792 32.0072 40.5291C32.1106 40.7791 32.1637 41.0469 32.1634 41.3174C32.1637 41.5879 32.1106 41.8557 32.0072 42.1057C31.9038 42.3556 31.7521 42.5827 31.5609 42.7739C31.3696 42.9652 31.1425 43.1168 30.8926 43.2202C30.6427 43.3236 30.3748 43.3767 30.1044 43.3765V43.3766Z" fill="#FACC15"/>
</svg>
