<svg width="46" height="49" viewBox="0 0 46 49" fill="none" xmlns="http://www.w3.org/2000/svg">
<path d="M22.7569 28.471C24.9502 28.471 26.7281 26.693 26.7281 24.4998C26.7281 22.3065 24.9502 20.5286 22.7569 20.5286C20.5637 20.5286 18.7857 22.3065 18.7857 24.4998C18.7857 26.693 20.5637 28.471 22.7569 28.471Z" fill="#61DAFB"/>
<path fill-rule="evenodd" clip-rule="evenodd" d="M4.09259 22.4078C3.19329 23.2196 2.8957 23.9291 2.8957 24.5C2.8957 25.071 3.19329 25.7804 4.09259 26.5922C4.99173 27.4039 6.37412 28.2012 8.20555 28.9005C11.8585 30.2953 17.0027 31.1883 22.7568 31.1883C28.5109 31.1883 33.6551 30.2953 37.308 28.9005C39.1395 28.2012 40.5218 27.4039 41.421 26.5922C42.3203 25.7804 42.6179 25.071 42.6179 24.5C42.6179 23.9291 42.3203 23.2196 41.421 22.4078C40.5218 21.5961 39.1395 20.7988 37.308 20.0995C33.6551 18.7048 28.5109 17.8117 22.7568 17.8117C17.0027 17.8117 11.8585 18.7048 8.20555 20.0995C6.37412 20.7988 4.99173 21.5961 4.09259 22.4078ZM7.17264 17.3943C11.2321 15.8443 16.7423 14.916 22.7568 14.916C28.7713 14.916 34.2815 15.8443 38.3409 17.3943C40.3657 18.1674 42.1039 19.1232 43.3613 20.2583C44.6186 21.3933 45.5136 22.8242 45.5136 24.5C45.5136 26.1758 44.6186 27.6067 43.3613 28.7417C42.1039 29.8768 40.3657 30.8327 38.3409 31.6057C34.2815 33.1557 28.7713 34.084 22.7568 34.084C16.7423 34.084 11.2321 33.1557 7.17264 31.6057C5.14792 30.8327 3.40968 29.8768 2.15224 28.7417C0.894956 27.6067 0 26.1758 0 24.5C0 22.8242 0.894956 21.3933 2.15224 20.2583C3.40968 19.1232 5.14792 18.1674 7.17264 17.3943Z" fill="#61DAFB"/>
<path fill-rule="evenodd" clip-rule="evenodd" d="M15.2366 7.29017C14.0839 6.91726 13.3207 7.01427 12.8263 7.29975C12.3318 7.58523 11.8662 8.19767 11.6128 9.3824C11.3594 10.5669 11.3601 12.1628 11.6702 14.0985C12.2888 17.9593 14.0875 22.8609 16.9646 27.8441C19.8416 32.8273 23.1871 36.8358 26.2215 39.302C27.7428 40.5384 29.1245 41.3369 30.277 41.7097C31.4297 42.0827 32.1929 41.9856 32.6874 41.7002C33.1818 41.4147 33.6474 40.8022 33.9008 39.6175C34.1542 38.433 34.1535 36.8372 33.8434 34.9014C33.2248 31.0406 31.4261 26.139 28.549 21.1558C25.672 16.1726 22.3265 12.1641 19.2922 9.69795C17.7708 8.46153 16.3891 7.66302 15.2366 7.29017ZM21.1185 7.45082C24.4905 10.1914 28.0495 14.4992 31.0568 19.708C34.064 24.9167 36.0152 30.1528 36.7026 34.4434C37.0455 36.5834 37.0868 38.5667 36.7325 40.2232C36.3782 41.8795 35.5865 43.37 34.1352 44.2079C32.6839 45.0458 30.9972 44.9862 29.3857 44.4649C27.7739 43.9434 26.077 42.916 24.3951 41.5491C21.0231 38.8085 17.4641 34.5007 14.4568 29.292C11.4496 24.0832 9.49841 18.8471 8.81101 14.5566C8.46815 12.4166 8.42683 10.4333 8.78114 8.77673C9.13542 7.12041 9.92716 5.62989 11.3784 4.792C12.8297 3.95411 14.5164 4.0137 16.1279 4.53505C17.7397 5.05647 19.4366 6.0839 21.1185 7.45082Z" fill="#61DAFB"/>
<path fill-rule="evenodd" clip-rule="evenodd" d="M33.9009 9.38239C33.6475 8.19766 33.1819 7.58522 32.6874 7.29974C32.1929 7.01426 31.4297 6.91725 30.277 7.29016C29.1245 7.663 27.7428 8.46152 26.2215 9.69794C23.1872 12.1641 19.8417 16.1726 16.9646 21.1558C14.0876 26.139 12.2889 31.0406 11.6703 34.9014C11.3602 36.8371 11.3595 38.433 11.6129 39.6175C11.8663 40.8022 12.3319 41.4147 12.8263 41.7002C13.3208 41.9856 14.084 42.0826 15.2367 41.7097C16.3892 41.3369 17.7709 40.5384 19.2922 39.3019C22.3265 36.8358 25.672 32.8273 28.5491 27.8441C31.4261 22.8609 33.2249 17.9593 33.8434 14.0985C34.1536 12.1628 34.1542 10.5669 33.9009 9.38239ZM36.7027 14.5565C36.0153 18.8471 34.0641 24.0832 31.0568 29.2919C28.0496 34.5007 24.4905 38.8085 21.1185 41.5491C19.4367 42.916 17.7398 43.9434 16.128 44.4649C14.5164 44.9862 12.8297 45.0458 11.3785 44.2079C9.92721 43.37 9.13547 41.8795 8.7812 40.2232C8.42688 38.5666 8.4682 36.5834 8.81106 34.4433C9.49846 30.1528 11.4496 24.9167 14.4569 19.7079C17.4641 14.4992 21.0232 10.1914 24.3952 7.45081C26.0771 6.08389 27.774 5.05646 29.3857 4.53504C30.9973 4.01369 32.684 3.9541 34.1353 4.79199C35.5865 5.62988 36.3783 7.1204 36.7325 8.77672C37.0869 10.4333 37.0455 12.4165 36.7027 14.5565Z" fill="#61DAFB"/>
</svg>
