<svg width="61" height="37" viewBox="0 0 61 37" fill="none" xmlns="http://www.w3.org/2000/svg">
<path d="M30.5 0C22.3664 0 17.2832 4.1112 15.2496 12.3328C18.3 8.22162 21.8584 6.6805 25.9248 7.70792C28.2452 8.29413 29.9035 9.99646 31.7395 11.88C34.7296 14.9484 38.1904 18.4996 45.7504 18.4996C53.8832 18.4996 58.9672 14.3884 61 6.16602C57.9504 10.2772 54.392 11.8191 50.3248 10.7917C48.0052 10.2055 46.3469 8.50316 44.5109 6.61957C41.5207 3.55121 38.0592 0 30.5 0ZM15.2496 18.4996C7.1168 18.4996 2.03282 22.6108 0 30.8332C3.04962 26.722 6.60802 25.1801 10.6752 26.2083C12.9948 26.7953 14.6531 28.4968 16.4891 30.3797C19.4793 33.448 22.9408 37 30.5 37C38.6336 37 43.7168 32.8888 45.7504 24.6664C42.7 28.7776 39.1416 30.3195 35.0752 29.2913C32.7548 28.7059 31.0965 27.0028 29.2605 25.12C26.2704 22.0516 22.8096 18.4996 15.2496 18.4996Z" fill="#06B6D4"/>
</svg>
